<?xml version="1.0" encoding="UTF-8"?>
<svg version="1.1" viewBox="0 0 1024 1024" width="1024" height="1024" xmlns="http://www.w3.org/2000/svg">
<path transform="translate(0)" d="m0 0h1024v1024h-1024z" fill="#798AA7"/>
<path transform="translate(591,266)" d="m0 0h17l9 4 7 6 7 10 2 6 1 20-1 113-1 2 9-4 17-10 13-13 11-14 6-8 6-11 7-14 5-15 4-18 1-9h1l3 17v19l-3 9-5 11-8 16-7 10-13 16-6 7-8 7-11 10-14 9-5 2v13l-5 17-6 11-2 3h-2l-2 4-11 9-14 6-10 2h-15l-10-3-10-6-10-8-8-9-6-12-1-9h-5l-6-3-10-3-2-1 2 9v24l-3 8 9 3 14 5 21 6 11 1h29l20-4 20-7 7-4 7-3 15-8 11-9 7-6h2l1-4 10-10h2l2-4 8-7 9-11 3-3 5-15 2-2v-55l-2-1h2l1-10h1l1 10 1 33 4 1 6 3 4 6 1 20-1 5 1 20 6 7-2 1-1 8 6 2 1 6-1 5h-1l-1 22h1l1 12 4 16 5 5 4 13 2 2v17l-3 5-1 10-1 4 2 3 3 4-1 5v24l1 5-1 3 1 7h10l8-1 2 1h29l2 4 3-3 6-3 10-2 3-4h2l1-5 2-3h2l2-6 10-5h7v-2l3-2 9-2 2-7h2l1-14 1-2 3-1 1-14 1-9-4-2 2-1 1-3-2-1 4-2 2-3v2h5l6 2v-9l5-7 11-3 2-7 2-5 3-6 5 4-1-5 5-2 3 1-4-4 1-4 8-16 5-5v-8l5-2v-18l3-2 4 1 4-3h2v-2l4 2 3 3 9-1 3-1 3-5 5-3-1-6v-10l2-8 3-4 5-2 3-4 4 2h4l3-7 4 2 4-2 2 8 3-1v-18l-3-1-1 4h-2l-1-4-1-16 4-2 3-6 3-2h3v664h-1023v-117h1l1 27 3 5 1 5 2-3h2l-4-7 1-6 1-5 7-1 5-1 3 1v-2l7-1 4-3h6l5-1 1 3h5l1-5 5-1 2 2 3 7 4 6 4 1-2 6 4 2 5 1h3l4 1 2-1 2-4 4-1 1-3 7 1 1 3-7 3-2 6 4 2 6-2 2-4h2v-2h2v2l4 1 3 2h12l6 1 2-11 6-3 4 2v2l5-3h2l-3-3-5-2 2-1-1-2v-6h4l2 7h6l3-1-1-3 4-3 4-2 1-8 9-5h13l-2 2-5 1-1 2 1 4 10 1 3 2 11 2 4 5 4 1 2-6 3-2 16-1 8-4 3-3 14-1 4-5 10-3v-1l-2-1-1-4-3-2 3-1 2-4 3-2 7 1 4-2v-7l6-5 5 2h3l3-5h6l-3 6-6 3-1 2 1 2 7 1 3-3 2-3 4 1 3 2 4-1 3-3 11-1 3-1 3-5 5-3 4-4 10-2 2-2 3-10 4-1 4 5h3v-6l-3-1 1-3h5l-1-3 1-1 15-1 1-1v-14l-1-8-7-1-3-2-5 1v-6l-6-2-2-2 1-8-1-4-5-2v-4l3-3 2-5v-8l-11-3-2-3-2-1-1-1-1-2 11-7 4-6 2-7 1-13h2v3l4-1 4-10 1-9 2-2v11l4 8 10 5 12 4 4 3-1 7-2 2-9 1-7-2-7-7-7 9 4 5 10 5 3 1h13l8-5 6-6v-14l-6-7-20-7-5-5 2-4 4-2h8l8 4h3l5-7-4-5 4-2h2v2l10 2 2-1 1 52 3 5h5l3-3 1-3 1-12 5-2h5l-1-10v-7l3-7 1 3-1 4v11l4 11 6 8 6 4 10 3h9l12-5 6-5-6-7-4-2-1 3-6 3h-10l-8-4-5-6-1-2v-14l6-7 9-3 9 1 6 3 3 2 6-6h2l-5-6-11-6 3-1 12 5v2l4-1h9l3-1 13 2 2-2 1 54 3 3 5 1v-2h2l1-7v-26l12 12 7 9v2l5-5 10-12 4-6h2l1 2 1 29 2 3h5l3-2v-59l1 2h2l1-2 5-1v-2l8-1h7l3 2v2h2v2l3-1 2 1-1 5-5 11-9 20-4 9-3 8 1 5 5 1 5-5 3-7 5-1h23l7 12 4 1 4-2-1-7-11-24-12-25-3-3v-3l4-2 2-4 1-4 1-7 3-3-1-3-5-1h-13l-3-1v-2l-9-1h-20l-3 1h-21l-9-3h-21l-10-2-11-2-48-1-34-2h-14l-12-2-20-7-9-4-7-3v-2l-10-3-2-2-5-6-2-1v-2l-5-1 4-1 13 3 36 2h38l-4-4-14-8-20-8-28-8-13-2h-21l-13 4-6 3v2l-5-2-8-8-4-5v-3l7-6h8v-2l16-3h28l23 4 15 5 15 6 23 11 26 11 21 9 11 4 22 2h64l20-2 12-3 16-6 9-5 12-9 10-9 12-18 3-10 7-18 1-6 1-18-16 16-16 12-11 8-16 8-18 8-11 4-17 4-19 4-10 1h-33l-23-3-1-1-9-2-20-6-14-5-26-13-7-3-17-5-8-3-11-3-10-2-12-1h-32l-11 2-12 4-14 8-1 3h-2l-4-11v-8l5-1v-2l15-9 12-3 8-1 42-1v-3l-6-10-2-6-1-11h-25l-22 7-9 3-17 9-3 1v-20l27-12 23-6 15-2h10l4 1 1-6 5-10 6-7 7-5 2-4-11-4-6-1h-28l-1 1-13 2-11 4-13 4-12 7-5 2-1-18 16-8 26-10 13-4 4-3-1-3-7-3-13-1-22 1-10 3-5 2v-14l3-2 12-2 23-2h13l9 2 2 3 2 6 8 3 24 3 24 5 16 5v-74l3-9 6-9 8-9h2v-2l16-8 35-13 29-10 12-5 26-9z" fill="#565185"/>
<path transform="translate(591,266)" d="m0 0h17l9 4 7 6 7 10 2 6 1 20-1 113-1 2 9-4 17-10 13-13 11-14 6-8 6-11 7-14 5-15 4-18 1-9h1l3 17v19l-3 9-5 11-8 16-7 10-13 16-6 7-8 7-11 10-14 9-5 2v13l-5 17-6 11-2 3h-2l-2 4-11 9-14 6-10 2h-15l-10-3-10-6-10-8-8-9-6-12-1-9h-5l-6-3-10-3-2-1 2 9v24l-3 8 9 3 14 5 21 6 11 1h29l20-4 20-7 7-4 7-3 15-8 11-9 7-6h2l1-4 10-10h2l2-4 8-7 9-11 3-3 5-15 2-2v-55l-2-1h2l1-10h1l1 10 1 33 4 1 6 3 4 6 1 20-1 5 1 20 6 7-2 1-1 8 6 2 1 6-1 5h-1l-1 22h1l1 12 4 16 5 5 4 13 2 2v17l-3 5-1 10-1 4 2 3 3 4-1 5v24l1 5-1 3 1 7h10l8-1 2 1h29l2 4 3-3 6-3 10-2 3-4h2l1-5 2-3h2l2-6 10-5h7v-2l3-2 9-2 2-7h2l1-14 1-2 3-1 1-14 1-9-4-2 2-1 1-3-2-1 4-2 2-3v2h5l6 2v-9l5-7 11-3 2-7 2-5 3-6 5 4-1-5 5-2 3 1-4-4 1-4 8-16 5-5v-8l5-2v-18l3-2 4 1 4-3h2v-2l4 2 3 3 9-1 3-1 3-5 5-3-1-6v-10l2-8 3-4 5-2 3-4 4 2h4l3-7 4 2 4-2 2 8 3-1v-18l-3-1-1 4h-2l-1-4-1-16 4-2 3-6 3-2h3v205l-7 5-1 11-8 3-7 2-1 16-3 4-1 7-2 4 2 4-5 4-2 5-5 3h-2l-1 3-4-2-1-1h-7l-2 3-1 10-1 2-3-1-3-7-3-1-14 2-3 6-6 3v7l1 1 1 17-6 3 1 5 1 4-6 3-2 4-3 1-1-5h-4v5l5 1v5l-7 2-9 1-6 5-4 2-3 5-5 4-5 2-7 6-11-1-4 1-4-7h-5l-2 7 7 2v4l-3 1-18 1-3-5h-6l-1 11-2 2-6 2-1-4v-13h-6l-2-2-1-7h-4l-2 1-3-8-2 2-5-12-3-2-2-5-3 7-1 1h-28v11h23l2 1v11l-1 1h-24v12h29l2 3v6l-4 4h-36l-4-4-1-50h-4l-2-6h-2v10l-2 1h-15v47l-4 3-5-1-3-5-2 2-1 4-5 1-4-2v-2l-3 2-3-1 2-1-1-7-11-24-12-25-3-3v-3l4-2 2-4 1-4 1-7 3-3-1-3-5-1h-13l-3-1v-2l-9-1h-20l-3 1h-21l-9-3h-21l-10-2-11-2-48-1-34-2h-14l-12-2-20-7-9-4-7-3v-2l-10-3-2-2-5-6-2-1v-2l-5-1 4-1 13 3 36 2h38l-4-4-14-8-20-8-28-8-13-2h-21l-13 4-6 3v2l-5-2-8-8-4-5v-3l7-6h8v-2l16-3h28l23 4 15 5 15 6 23 11 26 11 21 9 11 4 22 2h64l20-2 12-3 16-6 9-5 12-9 10-9 12-18 3-10 7-18 1-6 1-18-16 16-16 12-11 8-16 8-18 8-11 4-17 4-19 4-10 1h-33l-23-3-1-1-9-2-20-6-14-5-26-13-7-3-17-5-8-3-11-3-10-2-12-1h-32l-11 2-12 4-14 8-1 3h-2l-4-11v-8l5-1v-2l15-9 12-3 8-1 42-1v-3l-6-10-2-6-1-11h-25l-22 7-9 3-17 9-3 1v-20l27-12 23-6 15-2h10l4 1 1-6 5-10 6-7 7-5 2-4-11-4-6-1h-28l-1 1-13 2-11 4-13 4-12 7-5 2-1-18 16-8 26-10 13-4 4-3-1-3-7-3-13-1-22 1-10 3-5 2v-14l3-2 12-2 23-2h13l9 2 2 3 2 6 8 3 24 3 24 5 16 5v-74l3-9 6-9 8-9h2v-2l16-8 35-13 29-10 12-5 26-9z" fill="#5E608F"/>
<path transform="translate(630,688)" d="m0 0h11l3 2v2h2v2l3-1 2 1-1 5-5 11-9 20-4 9-3 8 1 5 5 1 5-5 3-7 5-1h23l7 12 2 1v2l5 2 2 2h1v8l18 1 2 2-1 5-4 2-2 5-3-2-2-5-9-2-1 2h7l4 4 1 3 6-1 2 2 6 1 1 30 5 3v6l-4 1-2-1-14-1-3-5h-6l-4 7-4-1-2-4-2 3-3-1v-3l-9 1-2 3h-14l-2-3-5-1 1 5 3 2 3 7 5 2 3 6 5 2v11h-4l-3-5-5-2-3-6-5-2-3-6-7-3-1-2-2 5h-3l-1-5-1 15h6l2 8-1 9-2 3-14 1-1 1h-6l-2 13h-4l-2-5-7 2-2 5-6 3-2 6-6 2-3 13-1 1-11 1-4 3-8 3-8 5-12 1-1 1-1 7-2 1h-11l-3-4v-2l-7 2-3 19-6 4-3 3-14 7-1 1-20 1-5 5-7 6h-13l-4 8h-12l-2 7-6 4-4 7-1 7-3 3h-7l-1-4 6-2v-3h-5l-2 5-5 1-4 7h-7l-1 4-10 2-13 1-3 1h-10l-3-2-2-5h-13l-13 1-6 4-4 2-2 5v3h-295v-117h1l1 27 3 5 1 5 2-3h2l-4-7 1-6 1-5 7-1 5-1 3 1v-2l7-1 4-3h6l5-1 1 3h5l1-5 5-1 2 2 3 7 4 6 4 1-2 6 4 2 5 1h3l4 1 2-1 2-4 4-1 1-3 7 1 1 3-7 3-2 6 4 2 6-2 2-4h2v-2h2v2l4 1 3 2h12l6 1 2-11 6-3 4 2v2l5-3h2l-3-3-5-2 2-1-1-2v-6h4l2 7h6l3-1-1-3 4-3 4-2 1-8 9-5h13l-2 2-5 1-1 2 1 4 10 1 3 2 11 2 4 5 4 1 2-6 3-2 16-1 8-4 3-3 14-1 4-5 10-3v-1l-2-1-1-4-3-2 3-1 2-4 3-2 7 1 4-2v-7l6-5 5 2h3l3-5h6l-3 6-6 3-1 2 1 2 7 1 3-3 2-3 4 1 3 2 4-1 3-3 11-1 3-1 3-5 5-3 4-4 10-2 2-2 3-10 4-1 4 5h3v-6l-3-1 1-3h5l-1-3 1-1 15-1 1-1v-14l-1-8-7-1-3-2-5 1v-6l-6-2-2-2 1-8-1-4-5-2v-4l3-3 2-5v-8l-11-3-2-3-2-1-1-1-1-2 11-7 4-6 2-7 1-13h2v3l4-1 4-10 1-9 2-2v11l4 8 10 5 12 4 4 3-1 7-2 2-9 1-7-2-7-7-7 9 4 5 10 5 3 1h13l8-5 6-6v-14l-6-7-20-7-5-5 2-4 4-2h8l8 4h3l5-7-4-5 4-2h2v2l10 2 2-1 1 52 3 5h5l3-3 1-3 1-12 5-2h5l-1-10v-7l3-7 1 3-1 4v11l4 11 6 8 6 4 10 3h9l12-5 6-5-6-7-4-2-1 3-6 3h-10l-8-4-5-6-1-2v-14l6-7 9-3 9 1 6 3 3 2 6-6h2l-5-6-11-6 3-1 12 5v2l4-1h9l3-1 13 2 2-2 1 54 3 3 5 1v-2h2l1-7v-26l12 12 7 9v2l5-5 10-12 4-6h2l1 2 1 29 2 3h5l3-2v-59l1 2h2l1-2 5-1v-2z" fill="#5E608F"/>
<path transform="translate(591,266)" d="m0 0h17l9 4 7 6 7 10 2 6 1 20-1 113-1 2 9-4 17-10 13-13 11-14 6-8 6-11 7-14 5-15 4-18 1-9h1l3 17v19l-3 9-5 11-8 16-7 10-13 16-6 7-8 7-11 10-14 9-5 2v13l-5 17-6 11-2 3h-2l-2 4-11 9-14 6-10 2h-15l-10-3-10-6-10-8-8-9-6-12-1-9h-5l-6-3-10-3-2-1 2 9v24l-3 8 9 3 14 5 21 6 11 1h29l20-4 20-7 7-4 7-3 15-8 11-9 7-6h2l1-4 10-10h2l2-4 8-7 9-11 6-8 4-7h1v26l-7 11-9 10-10 10-8 7-11 9-10 7-14 9-14 7-11 4-10 4-17 4-7 2-9 1h-32l-14-3-29-9-6-3v-2h-2l-6 9-6 7-9 7-7 4h-2l3 3 16 8 33 11 22 4 7 1h43l20-4 23-7 21-9 23-14 14-12 5-4 3-4h2l2-4 13-13 1 20-11 13-8 8-16 12-11 8-16 8-18 8-11 4-17 4-19 4-10 1h-33l-23-3-1-1-9-2-20-6-14-5-26-13-7-3-17-5-8-3-11-3-10-2-12-1h-32l-11 2-12 4-14 8-1 3h-2l-4-11v-8l5-1v-2l15-9 12-3 8-1 42-1v-3l-6-10-2-6-1-11h-25l-22 7-9 3-17 9-3 1v-20l27-12 23-6 15-2h10l4 1 1-6 5-10 6-7 7-5 2-4-11-4-6-1h-28l-1 1-13 2-11 4-13 4-12 7-5 2-1-18 16-8 26-10 13-4 4-3-1-3-7-3-13-1-22 1-10 3-5 2v-14l3-2 12-2 23-2h13l9 2 2 3 2 6 8 3 24 3 24 5 16 5v-74l3-9 6-9 8-9h2v-2l16-8 35-13 29-10 12-5 26-9z" fill="#28154F"/>
<path transform="translate(1022,768)" d="m0 0h2v256h-438l2-3h3l1-3 6-2 3-2 7-1 5-2 3 2h13l3-3-1 5h9v-5l3 3h10l1-2h4l6 1v-2l3 1h9l-3-2 7-1h9l1-7 8-4 2-5 6-2h2l-1-6 1-1h9l5-7 13-3 3-5 5-3 1-7 8-6 7-3 2-8 2-3 5-1 2 6 5-1 1-6 31-1 8-2 1-11 2-2 11-2v-5l-3-2 1-3 5-1 2-10 1-1 11-1 4-3 10 2h8l4-1v-2l7-3 2-1 15-1 5-4 10-4 2-5 1-1 24-1v-7l5-2-1-5-4-1-1-4 1-2 9-2 6-3 3-3 10-4 4-6 5-2-1-5-5-2-1-4 1-1 12-1 3 7 1 4 8-7 1-1 12-1 4-3h3l-1-10 1-4-2-3v-6l3-4 3-7 2-7 2-6z" fill="#4E457D"/>
<path transform="translate(548,233)" d="m0 0h62l22 1 24 8 11 6v2l5 2 11 9 8 8 9 13 8 16 3 10v12l-5 22-6 15-8 16-7 11-7 8-9 11-11 11-20 12-6 1 1-117-1-18-3-7-4-6-5-6-6-4-6-2h-17l-20 7-23 8-18 7-29 10-26 10-9 5h-2v2l-7 6-7 10-3 6-1 5-1 74-10-2-19-5-16-3-19-2-8-3-2-2-2-7-9-2h-13l-23 2-16 2 1-52 2-21 3-13 8-18 9-15 5-5 4-6 6-5 5-5 13-8 15-7 23-5 55-1h48z" fill="#EE298C"/>
<path transform="translate(0)" d="m0 0h288l-2 4h-2v6l-1 2h-7v6l-3 5-8 3-2 5-1 1-19 1-6 7-4 2-2 5-2 3h-6l-5-1-3 6-1 3-1 4-3-1-1-3-10 5-2 3h-6l-4-1-5 7-5 2-2 5-6 3-2 5-6 3-2 5-5 2-5 1-4 16-2 5-4 1-3-6-6-2-3 3v7l-6 2-3 4-5 2-3 5h-4l-3-7-4-1-2 2-2 7-7 2-1 2-2-3h-11l-3 5-5-1-1-2v-8l-1-3-6-2-4-9-1-10h-4l-1 5-13 6h-2l-1 5-7 6-4 3h-2l-3 9-4 6h-3l1 9-2 2-1-10-5 2-1 70h-1z" fill="#97B5C1"/>
<path transform="translate(594,283)" d="m0 0h14v2l5 2 3 5v161l-3 14-4 8-9 8-15 7-3 1h-11l-12-4-10-8-6-8-5-12v-12l5-14 8-9 11-7 12-3h9l9 3 4 2 1-19v-68l-11 1-20 6-29 10-37 13-10 4-5 4-1 2-1 117-3 12-5 8-8 8-11 7-7 2h-15l-12-5-6-4-9-10-4-8-2-8v-13l4-10 7-9 7-6 11-6 6-2h11l9 3 8 4v-112l5-8 8-6 8-4 12-4 7-3 18-6 9-4 13-4 20-7 6-3 13-4z" fill="#19D2D2"/>
<path transform="translate(711,521)" d="m0 0h2v18l-2 8-7 19-3 9-7 10-7 9-10 9-11 8-11 5-15 6-10 2-20 2h-64l-22-2-21-8-20-9-21-9-26-12-19-7-20-4-7-1h-28l-16 2v2l-8 1-4 2-1 3-3 1-8-13-5-11-1-5h2l1-4 10-6 11-4 9-3 7-1h32l12 1 21 5 17 6 8 2 8 4 17 8 10 5 28 9 6 2 7 1 6 2 18 2h33l15-2 24-5 7-2 25-10 16-8 14-9 11-9 9-7 8-8z" fill="#387FC0"/>
<path transform="translate(591,266)" d="m0 0h17l9 4 7 6 7 10 2 6 1 20-1 113-1 2 9-4 17-10 13-13 11-14 6-8 6-11 7-14 5-15 4-18 1-9h1l3 17v19l-3 9-5 11-8 16-7 10-13 16-6 7-8 7-11 10-14 9-5 2v13l-5 17-6 11-2 3h-2l-2 4-11 9-8 2-4 2-7 2-16 1-7-2v-2h3v-2l8-5h3l1-2 1-1-9-1-2-2 12-1 12-5 10-6 6-7 4-13 1-6v-161l-2-5-5-2v-2l-14 1-18 6-12 5-28 10-13 4-7 3-18 6-10 4-9 4-6 4-5 4-3 6-1 112-6-2-6-3-5-1h-11l-10 4-11 7-3 2-3-4v-4h-4l-5 2v-2l4-3v-3l3-2 2-4-11-4-6-1h-28l-1 1-13 2-11 4-13 4-12 7-5 2-1-18 16-8 26-10 13-4 4-3-1-3-7-3-13-1-22 1-10 3-5 2v-14l3-2 12-2 23-2h13l9 2 2 3 2 6 8 3 24 3 24 5 16 5v-74l3-9 6-9 8-9h2v-2l16-8 35-13 29-10 12-5 26-9z" fill="#291650"/>
<path transform="translate(548,233)" d="m0 0h12l-3 2-4 1-48 2-2 2h-4l-2 4-1 3-6 3h-2l-1 4-1 1-7 1-8 4h-2v2l-7 6 1 4 2 4 6 1v2h-5l-3-3h-2l-2 4-3 3h-2v4h-2l-1 4-5 4-5 6-5 4-7 2-3 3-3 2-14 2-5 5-1 5-3 1-5 5-6 8-1 2-4-1-4-6-4-4-4-1-1 2h2l1 3-4 2h-5l-7 10-15 6-10 7-7 6h-2l-2 6-2 2h-3l-1 3-4 4v13 3h-4l1-52 2-21 3-13 8-18 9-15 5-5 4-6 6-5 5-5 13-8 15-7 23-5 55-1h48z" fill="#F64072"/>
<path transform="translate(592,233)" d="m0 0h18l22 1 24 8 11 6v2l5 2 11 9 8 8 9 13 8 16 3 10v12l-5 22-6 15-8 16-7 11-7 8-9 11-11 11-20 12-6 1 1-117-1-18-3-7-4-6-5-6-6-4-6-2h-17l-20 7-2-1 2-2 1-9 6-10h2l1-8 3-7z" fill="#8C18F0"/>
<path transform="translate(713,447)" d="m0 0 1 4v43l-3 2-3 8-7 7-7 8-14 12-14 9-13 8-24 10-28 8-12 2h-43l-24-4-21-6-19-7-17-9v-2l12-7 7-6 8-10 2-5 3 1v2l10 3 9 3 16 5 14 3h32l14-2 28-8 8-4 10-4 15-8 10-7 9-7 11-9 15-14 7-7 7-11z" fill="#19D2D2"/>
<path transform="translate(715,533)" d="m0 0h1l2 11h-2v8l-1 5 1 3v11l-4 8-2 7-4 9-4 7-8 5-7 8-10 7-5 2-3 3-16 8-7 2-3 2-8 4-9 1-6-1-4 1h-13l-22 1h-14l-5-2-38-1-18-1h-18l-2-1-24-1 1-2-2-1v-3h-2v-3h-3l-1-4-61-2-13-3-5-2 4-1 13 3 36 2h38l-4-4-14-8-20-8-28-8-13-2h-21l-13 4-6 3v2l-5-2-8-8-4-5v-3l7-6h8v-2l16-3h28l23 4 15 5 15 6 23 11 26 11 21 9 11 4 22 2h64l20-2 12-3 16-6 9-5 12-9 10-9 12-18 3-10 8-20 2-4z" fill="#555185"/>
<path transform="translate(714,496)" d="m0 0h1l1 20-11 13-8 8-16 12-11 8-16 8-18 8-11 4-17 4-19 4-10 1h-33l-23-3-1-1-9-2-20-6-14-5-26-13-7-3-17-5-8-3-11-3-10-2-12-1h-32l-11 2-12 4-14 8-1 3h-2l-4-11v-8l5-1v-2l15-9 12-3 8-1 42-1v-3l-2-9 3-4h3v-2l5 1 3 6 2 1 1 3 3 1 1 4-2 2 1 6 6 2 3 5h20l7 3 10-8v-2l8-1 4-4 6-2 3-8h2l1-2 2 1v-5l6-2 2 1 1 9-4 6-1 4-5 6-9 7-7 4h-2l3 3 16 8 33 11 22 4 7 1h43l20-4 23-7 21-9 23-14 14-12 5-4 3-4h2l2-4 10-10z" fill="#361658"/>
<path transform="translate(711,521)" d="m0 0h2v18l-2 8-7 19-6 10h-2l-2 5-4 5-7 6-11 7-10 6-20 9-12 4-2 2-12 3-11 1h-45l-7-2 1-7-15-8-6-4-4-5v-2l-4-2-1-3-4-1v-2h-2v-2l13 1 2 1 22 1-22-2-19-4-14-4-22-8-28-14-10-4-27-8-21-4-7-1-18-1v-1h21l12 1 21 5 17 6 8 2 8 4 17 8 10 5 28 9 6 2 7 1 6 2 18 2h33l15-2 24-5 7-2 25-10 16-8 14-9 11-9 9-7 8-8z" fill="#14B7D4"/>
<path transform="translate(594,283)" d="m0 0h10l2 2-2 4-26 8-14 4-11 5-12 3-10 5-21 8-20 7-14 7-6 7-1 6 3-4 3 10 2 5 4 2 3 3-3 3-7 4h-2l-2 5-2 4v63h3l1-4 5-2 4 1-1-50v-16l3-3 1 2-1 117-3 12-5 8-8 8-11 7-7 2h-15l-12-5-6-4-9-10-4-8-2-8v-13l4-10 7-9 7-6 11-6 6-2h11l9 3 8 4v-112l5-8 8-6 8-4 12-4 7-3 18-6 9-4 13-4 20-7 6-3 13-4z" fill="#2EDAD2"/>
<path transform="translate(714,349)" d="m0 0 1 4-1 6 1 9v46l-3 4-4 13-11 12-7 8-8 7-9 9-1 3-11 9-11 8-16 9-7 3-17 7-15 4-12 2h-29l-15-2-24-7-16-7 2-8v-24l-1-9 12 3 6 3 5 1 3 12 7 12 8 8 13 9 11 4 3 1h15l13-3 14-7 9-8 1-2h2l2-4 6-13 4-14 1-13 13-8 13-10 14-14h2l2-4 14-17 9-15 7-16z" fill="#33EDCA"/>
<path transform="translate(449,333)" d="m0 0h2l-1 6-2 7v23l1 11 2 1 3 8 2 3 1 16 2 3 2-1 1-31h1l1 50v23l-6-2-6-3-5-1h-11l-10 4-11 7-3 2-3-4v-4h-4l-5 2v-2l4-3v-3l3-2 2-4-11-4-6-1h-28l-1 1-13 2-11 4-13 4-12 7-5 2-1-18 16-8 26-10 13-4 4-3-1-3-7-3-13-1-22 1-10 3-5 2v-14l3-2 12-2 23-2h13l9 2 2 3 2 6 8 3 24 3 24 5 16 5v-74l3-9z" fill="#292159"/>
<path transform="translate(602,289)" d="m0 0 2 1-1 3 3 4-1 6-8 7-1 7-4-1-1-5-2-1v-2h-5l-2 3-16 5-4 2 1 2 6 2-2 1 1 6-3 5-10 5-3-1h-10l-5 6h-5v2l-8 1v2h-4l-1 3h-7v2h-4v2h-2l-1 4-13 5-6 4-4 2-1 5v63h-6l-3 2-1 3h-3l-1-20v-43l5-9 11-6v-3l-4-2-3-3-3-6-1-4-2 4-2-2 2-9 7-7 21-9 28-10 14-6 9-3 13-5 8-3 28-8z" fill="#2EDAD2"/>
<path transform="translate(713,447)" d="m0 0 1 4v43l-7 6-3 3h-2l-1 3h-2v6l-5 4-4 2-10 9-18 11-8 5-14 6h-3v2l-18 5-6 1v2l-15 3-3-1 3-1 1-3h2l1-7-4-2-2-3-5-3 4-6h5v-2l2-1-1-2h7v-2l16-2 14-5h2v-2l7-2 1-2 2-1 1-3 7-3 3-4-11 6-2 2-9 2-11 5-16 6-25 6-14 1h-23l-17-3-8-3 1-2 6 1 14 3h32l14-2 28-8 8-4 10-4 15-8 10-7 9-7 11-9 15-14 7-7 7-11z" fill="#33EECB"/>
<path transform="translate(579,351)" d="m0 0 2 1 1 24-1 22-18 2-13 5-9 7-8 9-6 10-5 12-5-1-16-7-1-7v-47l4-4 7-3 15-5 17-6 12-3 9-4 10-3z" fill="#8E18F0"/>
<path transform="translate(411,339)" d="m0 0 5 1 8 5 2 4 6 1v3l10 2 3 5v57l-10-2-19-5-16-3-19-2-8-3-2-2-2-7-15-3v-1l8-1 2-5 5-5h2l2-5 4-3 7-3 11-2 12-6-2-5-4-4 1-4z" fill="#E420AE"/>
<path transform="translate(714,419)" d="m0 0h1v26l-7 11-9 10-10 10-8 7-11 9-10 7-14 9-14 7-11 4-10 4-17 4-7 2-9 1h-32l-14-3-13-4v-2l-3-3-1-4-4-2-1-3 2-5 5 1 3 2 4 3-1 1 7 2 2-2h51l20-4 20-7 7-4 7-3 15-8 11-9 7-6h2l1-4 10-10h2l2-4 8-7 9-11 6-8z" fill="#2A1851"/>
<path transform="translate(591,266)" d="m0 0h17l-3 2 1 4-3 9 1 2-14 2-11 4-13 5-16 6-14 5-13 4-7 3-18 6-10 4-9 4-6 4-5 4-3 6-1 89h-1l-1-13h-1l-1-5-3 3h-1l-1-22-4-7v-4l-3-1-1-11v-23l4-13-2-1 8-11 5-5h2v-2l16-8 35-13 29-10 12-5 26-9z" fill="#2B235B"/>
<path transform="translate(362,573)" d="m0 0h28l23 4 15 5 15 6 23 11 26 11 21 9 11 4v1l-7 1h-39l-10-1-5-5-14-8-20-8-28-8-13-2h-21l-13 4-6 3v2l-5-2-8-8-4-5v-3l7-6h8v-2z" fill="#28144E"/>
<path transform="translate(364,433)" d="m0 0h28l10 2 8 3-3 6-5 4h-2l-2 4-5 6-4 10-7 1h-17l-31 6-16 8-5 2h-4v-30l1-2 9-5 12-6 11-3 8-3 13-2z" fill="#1AD3D2"/>
<path transform="translate(711,521)" d="m0 0h2v18l-2 8-7 19-6 10h-2l-2 5-4 5-7 6-7 1-2 3h-5l-3-3 4-1 6-7h2l-1-4 1-3-11 1-3 2-1-4-2 1h-8v2h-2v-2h-8v2l-5 4h-9l-4-3-10 1-15 4-15 2-13 1h-17l-22-2-19-4-14-4-22-8-28-14-10-4-27-8-21-4-7-1-18-1v-1h21l12 1 21 5 17 6 8 2 8 4 17 8 10 5 28 9 6 2 7 1 6 2 18 2h33l15-2 24-5 7-2 25-10 16-8 14-9 11-9 9-7 8-8z" fill="#19E4CE"/>
<path transform="translate(482,373)" d="m0 0h1v116l-3 12-5 8-8 8-11 7-7 2h-15l-12-5-6-4-7-8 2-1 4 2 4-3-7-2 4-4 2-4 1 3h3l1 5 7-2v-3l-2-1v-6l2-1 3 2-1 2h2l1-4 8-8 5-4h3l1-4 12-6 6-1-1-4h3v-12l6-4h3z" fill="#18D2D3"/>
<path transform="translate(714,496)" d="m0 0h1l1 20-11 13-8 8-16 12-11 8-16 8-18 8-11 4-17 4-19 4h-12v-1l5-1-5-2-14-1-3 1-5-3v-2l-2-1 2-2h16v-2l7-2 16-2 35-10 24-10 23-14 14-12 5-4 3-4h2l2-4 10-10z" fill="#351958"/>
<path transform="translate(710,418)" d="m0 0 1 4-4 10-10 11-7 8-8 7-9 9-1 3-11 9-11 8-16 9-7 3-17 7-15 4-12 2h-29l-15-2-24-7-16-7 2-8v-24l-1-9 12 3 6 3 5 1 3 12 7 12 8 8 13 9 11 4 3 1h15l13-3 12-6 15-6v-2h2v-2l9-2h4v-2l14-7 7-6h2l3-10 6-3-1-3 10-1 2-7 2 1-1 1 2 1 1-4h3l2-4h2l2-4 5-5 5-8h2l2-4z" fill="#19E3CD"/>
<path transform="translate(709,497)" d="m0 0 1 3-3 5-7 8-5 5-15 13-14 9-13 8-24 10-28 8-12 2h-43l-24-4-21-6-19-7-17-9v-2l12-7 7-6 8-10 2-5 3 1 1 3 12 6 6 2v2h-6l-1 2 3 5 5 5 11 9-1 5-3 3v3l13 4h7l15 2h28l10-2 1-1 9-2h6v-2l19-6h5v-2l13-5 11-6 17-11 11-9 3-3 4-2 3-1v-6l7-6 3-1z" fill="#1BB2D1"/>
<path transform="translate(367,592)" d="m0 0h21l17 3 27 8 13 5 18 10 4 3v2l-20 1h-18l-36-2-17-4-19-10-5-3-5-5 12-6z" fill="#8D18F1"/>
<path transform="translate(247,690)" d="m0 0 5 5 14 15 9 11 3 2 9-12 5-6 15-15 2 4 1 6v50l-4 4-5-1-3-4-1-22-1-5-9 9-7 8-2 3-3-1-4-5v-2h-2l-11-14-1 29-5 5-4-1-4-4v-27l1-30z" fill="#FAFDFD"/>
<path transform="translate(661,577)" d="m0 0h2l2 3 2-2h11v7h-2l-2 4-5 5v1h5l2-3h5l-3 3-14 9-22 10-19 3-3-3 2-3-3-4-13-5-8-3-5-3-9-3v-3l8-3 1-1 15-3 12-3h6l3 3h11l1-3h2v-2h8v2h2v-2z" fill="#18D2D2"/>
<path transform="translate(556,690)" d="m0 0 5 5 12 13 9 12 4 3 11-14 7-8 10-11 2 1 1 3 1 12v45l-4 3h-5l-3-4-1-31-4 4-7 9-8 10h-2l-10-13-8-9v28l-2 4h-2v2l-7-1-2-3v-46l2-13z" fill="#FAFDFD"/>
<path transform="translate(632,295)" d="m0 0h1l1 17-1 116 2 2 1 12-3 4h-6l-10-6v-40l1-21v-61l3-6-1-3h2v-5l4 1 1 5v2l1 6h3z" fill="#351556"/>
<path transform="translate(568,415)" d="m0 0h12v7l4 1 2 11-2 4-1-4-2 2-2 1 3 5 2 2-1 4-2 4-3 1-1 3-3 1-2 5-3 1-2 6-3 3-4-2-7 2-4 6-5-5-5-11-1-3v-12l5-14 8-9 11-7z" fill="#2EDAD2"/>
<path transform="translate(742,692)" d="m0 0h38l3 3 1 5-3 4h-28v11h23l2 1v11l-1 1h-24v12h29l2 3v6l-4 4h-36l-4-4v-40l1-16z" fill="#F8FCFC"/>
<path transform="translate(655,690)" d="m0 0 4 1 5 6 8 16 15 33v5l-5 3-5-2-6-11h-28l-3 9-5 4-6-2-1-5 6-16 5-10 9-19 5-10z" fill="#FAFDFD"/>
<path transform="translate(327,691)" d="m0 0h6l4 3 1 38 3 5 6 3h9l5-5 2-6 1-34 4-4 6 1 3 4v37l-3 9-5 6-7 4-7 2h-9l-9-3-9-8-4-11v-38z" fill="#FAFDFD"/>
<path transform="translate(360,489)" d="m0 0h26l1 12 4 10 3 4-1 5h-59l-6-8-5-1v-2l-8 1-5 2 2-4 21-11 22-6z" fill="#16B7D4"/>
<path transform="translate(344,546)" d="m0 0 19 7 6 3v2l17 4 9 1 9 5 3 5 5 2 20 7 1 2-5-1-15-5-23-4h-28l-16 2v2l-8 1-4 2-1 3-3 1-8-13-5-11-1-5h2l2 3 12-9 2-2z" fill="#3361AF"/>
<path transform="translate(322,712)" d="m0 0h1l1 16 4 13 6 7 8 4v2h-2l-1 3v-2h-2v2l-9 2-2 1h-10l-13-1h-7l-8-4-10-2-13 1-5 1-5-1-3 1 1-3 3-3 1-30 5 5 7 8v2h2l5 7 2 1 2-4 15-16 2-1 1 6 1 22 3 4 5-1 3-3 1-20 10-3z" fill="#5F6290"/>
<path transform="translate(571,399)" d="m0 0h5v2l-11 2-13 2-1 3-3 1v3l-6 2-2 5 2 5h2l1 4-2 4-2 8-2 7v12l5 12 6 8 11 8 10 3 1 2 10 1-2 3-9 5-3 1v2h-3l1 2 12 1 10-1 8-3 7-2v2l-14 5-6 1h-15l-10-3-10-6-10-8-8-9-6-12v-10l8-4-2-12-4-5 1-8h2l1-5 3-7 11-12 10-6z" fill="#28154F"/>
<path transform="translate(724,706)" d="m0 0h7l6 2 2 6v9l1 1 1 25 3 4-1 5 4 6h-3v2l-6 2-1 2h-22l-5-3-8-2v-1h7l8 4 1-3h2v-2l-6 1-5-2-7 1 2-2-1-1v-5l9 1v-2l3-1 1-45z" fill="#5E608E"/>
<path transform="translate(711,311)" d="m0 0h1l3 17v19l-3 9-5 11-8 16-7 10-13 16-6 7-8 7-11 10-14 9-5 2-1-14-2-3 9-4 17-10 13-13 11-14 6-8 6-11 7-14 5-15 4-18z" fill="#2C245C"/>
<path transform="translate(404,691)" d="m0 0h12l8 3 7 6-6 8h-3l-8-4h-8l-5 3 2 4 4 3 18 6 7 8v14l-4 5-9 6-2 1h-13l-10-4-8-7 7-11 5 4v2l10 3 9-1 2-3v-5l-9-4-13-5-5-5-3-6v-7l3-6 7-6z" fill="#F9FDFD"/>
<path transform="translate(497,691)" d="m0 0 11 1 10 5 5 5v2l-8 7-6-4-7-2-10 1-6 4-3 4v14l4 6 6 4 3 1h10l6-3 1-2 5 2 6 7-7 6-12 5h-9l-12-4-8-7-6-12-1-4v-11l3-8 6-10 10-5z" fill="#F9FDFD"/>
<path transform="translate(512,504)" d="m0 0 5 1 3 2 4 3-1 1 7 2 2-2 25 1h28l4-1h12l5 4 10-1 4 4v2l-14 4-19 5-9 1h-32l-14-3-13-4v-2l-3-3-1-4-4-2-1-3z" fill="#351657"/>
<path transform="translate(568,233)" d="m0 0h24l-3 2-5 2-3 12-1 3-4 4-3 6-1 9-4 4-20 7-18 7-3-1 4-1-1-2v-8l4-8 18-18 4-3h2l2-4 3-4h2v-4z" fill="#E420AE"/>
<path transform="translate(714,496)" d="m0 0h1l1 20-11 13-8 8-16 12-11 8-10 5-2-4 1-2-3 1-2-4-7-1-4 1 1 3-2 4h-5l-2-2-3-2 21-9 23-14 14-12 5-4 3-4h2l2-4 10-10z" fill="#2A1852"/>
<path transform="translate(347,390)" d="m0 0h13l9 2 2 3 2 6 8 3 24 3 24 5 8 3-3 1-7-2h-63l3-3-1-3-7-3-13-1-22 1-10 3-5 2v-14l3-2 12-2z" fill="#636D98"/>
<path transform="translate(482,373)" d="m0 0h1v116l-3 12-5 8-8 8-11 7-7 2h-15l-12-5-6-4 2-1 5 1 3-1 2-4-4-1 10 1 7 1 9-5 10-6 4-4h2l2-4 3-4 4-23 5-2 1-2z" fill="#357CBF"/>
<path transform="translate(330,689)" d="m0 0 6 2 5 3 1-2 2 1 18 2 2-1v35l-3 8-5 4h-9l-7-4-3-5-1-38-6-4z" fill="#5E618F"/>
<path transform="translate(594,283)" d="m0 0h10l2 2-2 4-26 8-14 4-11 5-12 3-10 5-21 8-20 7-14 7-6 7-1 4-4 48h-1v-55l5-8 8-6 8-4 12-4 7-3 18-6 9-4 13-4 20-7 6-3 13-4z" fill="#F0F8FA"/>
<path transform="translate(394,515)" d="m0 0 3 2-1 5-7 1-32-1v2l7-1h12v2l3 1v10h-11v2l-19 2-16 5-14 8-1 3h-2l-4-11v-8l5-1v-2l15-9 12-3 8-1 42-1v-3z" fill="#28154F"/>
<path transform="translate(512,564)" d="m0 0 2 1 4 1 3 1 1 1v-1h7l1 1h33l31-1-4 2-12 1-7 1v2l-16 1v4l6 2 2-1 14 1 6 2-1 2-3 2h-33l-23-3-1-1-9-2-14-4-1-3-6-2-4-3h3v-2l-2-1 9 1 6 2v-3z" fill="#351758"/>
<path transform="translate(686,692)" d="m0 0h43l2 3v8l-2 1h-15v47l-4 3-5-1-3-5v-44h-14l-3-3-1-6z" fill="#F9FDFD"/>
<path transform="translate(710,418)" d="m0 0 1 4-4 10-10 11-7 8-8 7-9 9-1 3-11 9-11 8-16 9-7 3-17 7-15 4-12 2h-29l-15-2-24-7-12-5 4-1 8 1 16 5 7 2 1 2 3 1 25 2 1-1 21-2 14-5 5-3 15-6v-2h2v-2l9-2h4v-2l14-7 7-6h2l3-10 6-3-1-3 10-1 2-7 2 1-1 1 2 1 1-4h3l2-4h2l2-4 5-5 5-8h2l2-4z" fill="#18B0D1"/>
<path transform="translate(658,505)" d="m0 0h3l-2 4-2 2-6 1-1 4-8 4h-2v2l-16 6-5 1h-11v2l-5 1-1 2h-2v2l-5 1v2l-3 3 6 4v2l5 2-1 5-4 5-2 1 1 2h-15l-2-1v-4l5-3h2l-3-6-6-3v-2l-4-1-9-3h-13l-8-2-4-3v-2l8 1h14l2-1 23-2 25-6 26-10 4-2 7-2z" fill="#1AE6CD"/>
<path transform="translate(346,403)" d="m0 0 13 1 8 4 1 4-5 3-21 7-25 10-7 4h-2l1-25h2v-2l7-3 6-2z" fill="#18D2D3"/>
<path transform="translate(615,386)" d="m0 0h1v67l-3 14-4 8-9 8-15 7-3 1h-11l-12-4-1-2 7 1-1-3v-3l-1-2 13 1v-2l8-3 11-7h2l2-4 3-5 3-14 6-4h2l1-5z" fill="#367DC1"/>
<path transform="translate(600,267)" d="m0 0h11l6 3 7 6 7 10 2 9-1 25-1-2h-3l-3-8h2l-1-5-4-1v5h-2l2 4-3 5v61l-1 21-1 40h-1l-1-148-2-5-5-2v-2l-8-1 3-1 1-7 1-5-5-1z" fill="#28154F"/>
<path transform="translate(582,354)" d="m0 0h1v44l8-1 2-1 2 1 1-2 1 14v10h-3l-10-3-1-1h-9l-12 3-12 8-7 9-1-3 2-5v-3h-2l-3-6 3-5 6-2v-3l3-1 1-2 12-3 12-1v-2l-14 3h-5l3-2 8-2h13v-22z" fill="#2A2159"/>
<path transform="translate(485,361)" d="m0 0h5l1 2h-2l-1 4-5 4-2 4v64h-6l-3 2-1 3h-3l-1-20v-43l5-9 11-6 1-4z" fill="#17E6CD"/>
<path transform="translate(711,521)" d="m0 0 2 1-10 13-9 8-10 8-10 7-15 8-16 7-19 7-24 6-15 2-13 1h-17l-22-2-19-4-14-4-22-8-28-14-10-4-27-8-21-4-7-1-18-1v-1h21l12 1 21 5 17 6 8 2 8 4 17 8 10 5 28 9 6 2 7 1 6 2 18 2h33l15-2 24-5 7-2 25-10 16-8 14-9 11-9 9-7 8-8z" fill="#CCE3E9"/>
<path transform="translate(634,622)" d="m0 0h6l-4 1v2l-20 2-5 1-1 2h-2v-2h-6v2l-8 1h-9l-3-1-9 3-13-1-5-3-14 2h-8l-2 1h-51l-5-1h-3v-2l-7-1v-2h2v-2h64l15 1h64l20-2z" fill="#4E457D"/>
<path transform="translate(364,433)" d="m0 0h28l10 2 8 3-3 6-5 4-5 2-3 3h-2v3h-2v2h-2v-2h-2v-3l-4-1 4-1 1-3-3-1v-2l-8-1h-19l-10 2h-6v-3l-14 5-16 8-2-1 1-2 9-5 12-6 11-3 8-3 13-2z" fill="#20E3CD"/>
<path transform="translate(449,691)" d="m0 0 6 1 2 4v54l-4 4h-5l-3-3-1-3v-48l2-7z" fill="#F9FDFD"/>
<path transform="translate(449,333)" d="m0 0h2l-1 6-2 7v23l1 11 2 1 3 8 2 3 1 16 2 3 2-1 1-31h1l1 50v23l-3-1-1-3h2l-1-3v-24l-7 6v2l-4-2h-11v-2l-2-1 2-1 1-4h6l-1-40v-36l3-9z" fill="#351556"/>
<path transform="translate(713,447)" d="m0 0 1 3-6 10-9 11-9 9h-2v2l-11 9-15 11-17 10-12 6-21 8-25 6-14 1h-23l-17-3-8-3 1-2 6 1 14 3h32l14-2 28-8 8-4 10-4 15-8 10-7 9-7 11-9 15-14 7-7 7-11z" fill="#DAF4F7"/>
<path transform="translate(318,508)" d="m0 0 5 1v2h5l5 6 1 2h59l2-2 1 3-2 1-42 1-17 3-11 6-5 3h-2v2l-5 1-1 4-2-11-1-15 7-6z" fill="#357DC0"/>
<path transform="translate(714,419)" d="m0 0h1v26l-4 6-6 2-6 1-1 3-2-1-1 3-4 2-1 4h-2l3 4-3 3h-3l-1 2-4 2h-6v-2l-3-1 1-2h2l2-4 10-10 2-4 12-14 9-11z" fill="#29154F"/>
<path transform="translate(357,443)" d="m0 0h19l8 2 3 3-1 4-12 1-8 6h-16l-11 1-5 1-3-6 9-7h4v-2l5-2z" fill="#2EDBD3"/>
<path transform="translate(387,416)" d="m0 0h2v2l2 1v2l-2 1 4 4 5 3 4 4h-7l-3 1h-28l-1 1-13 2-11 4-10 2-6 1 1-4 4-1 8-1 1-3 4 1 1-3 4-1h4v-3h2l1-7 5-1 5 3 6-1 5-1 6 2h3v-3-3h3z" fill="#391C5B"/>
<path transform="translate(424,772)" d="m0 0 8 1 11 9h3l1 4 1-10 3-2 9 1 4 3 1 3v8l-6 5-9 1v-2l-5-2-3-1-4 1-2 1-1-2-4 5-4-1 1-2 3-4v-6l-2-2h-10l-2 6-2-1v-5l4-4 2-3z" fill="#DCF7FA"/>
<path transform="translate(568,415)" d="m0 0h12v12l-9 2-10 7-4 8-3 5-1 1h-5l-1-7 2-8-1 1h-5l1-4 7-8 11-7z" fill="#F5FBFC"/>
<path transform="translate(432,446)" d="m0 0h14l-1 5 1 6-3 2-11 3-8 6-7 10h-4l-1-2v-8l-5 3-1 2h-2l1-5 7-9 7-6 11-6z" fill="#F5FBFC"/>
<path transform="translate(472,546)" d="m0 0 6 2 12 5 27 9 22 4 7 1 17 1v1h-33l-1-1h-6-3l-7-2-1-1h-8v3l-6-1-7-1-1 3 8 4v2l-10-3-9-3-10-5-1-3h9l3-1h4l-2-4-2-1v-2l-7-1z" fill="#2A1751"/>
<path transform="translate(360,705)" d="m0 0h1l1 9v17l-2 7-4 3h-9v-1l5-1-4-9-5-5-4-2v-17h8l2 4z" fill="#7889A6"/>
<path transform="translate(385,308)" d="m0 0 5 1 2 1v2l4 2 6 6-1 4-5 5-6 7-2 4-4-1-4-6-8-7-2-1v-5l5-6 9-5z" fill="#F9FCFC"/>
<path transform="translate(336,391)" d="m0 0h23v3l-2 3v3l-8 2-15 1-16 4-9 3v-14l3-2 12-2z" fill="#4E467D"/>
<path transform="translate(602,486)" d="m0 0h6v2l4 1 3 6-10 7-6 1-4 2-7 2-16 1-7-2v-2h3v-2l8-5h3l1-2 1-1-9-1-2-2 12-1 5-1-1 2h-2v2h6l2 1 4-3h3l1-4z" fill="#351556"/>
<path transform="translate(349,421)" d="m0 0h5l-2 8h-2v3l-8 2-1 2h-3l-1 2-9 2-2 1-2-1-1 4 6-2-4 4-6 3-9 5h-1v-17l13-6 14-6z" fill="#29154F"/>
<path transform="translate(368,577)" d="m0 0 8 1 1 3-1 3h21v3h2v4 1l8 1v3l-19-3h-21l-13 4-6 3v2l-4-2 8-5-1-2v-6l6-5 6-2 4-2z" fill="#292159"/>
<path transform="translate(371,396)" d="m0 0 8 3v2l15-1 1-1 18-1 11 4 9 3 5 3 7 2v7l-10-2-19-5-16-3-19-2-8-3-2-2z" fill="#8D18F1"/>
<path transform="translate(701,570)" d="m0 0 1 3-10 15-6 7-8 7-12 9-11 5-15 6-10 2-10 1h-9v-1l17-5 4-3 15-5 21-10 10-7 6-4h2l2-4h2l2-4 4-6 4-4z" fill="#357BBF"/>
<path transform="translate(311,455)" d="m0 0 4 1v2h5l1-2 6 2 4 10v5l4 1-10 6-12 5h-4v-28z" fill="#14B8D4"/>
<path transform="translate(478,449)" d="m0 0h3l1 2v12l-2 3-4 1-4 23-6 8-7 6-18 10-12-2 4-2 5-1 1-2 12-4 1-4 4-3 5-1 1-5h3l-1-3 4-4 2-12-1-6h3v-12z" fill="#14B8D4"/>
<path transform="translate(712,451)" d="m0 0h2v43l-4 2-2-4-4-4-1-6h-6l-4 1v2l-3 1-3-3 7-6 2-4 10-11z" fill="#18E4CE"/>
<path transform="translate(662,293)" d="m0 0 4 1 2 6h2v2l4 2 4 5-1 4-12 12h-2l-4-5-9-7-1-5 3-4 6-3z" fill="#F8FCFD"/>
<path transform="translate(595,566)" d="m0 0h9v2h2l-1 5-11 4h-2v2l-5 1 1 4-1 1h-10v-1l5-1-5-2-14-1-3 1-5-3v-2l-2-1 2-2h16v-2l7-2 16-2z" fill="#28144E"/>
<path transform="translate(688,451)" d="m0 0 2 1-3 4-6 7-7 8-2 2 2 1v2l6-1 2 1 1-3 5-1 1-3-1-4h2v-5l5-2 1-2h2v-3l9-1 3-1-2 5-9 10-10 10-8 7-7 5-2-8-11 2-5 1 5-5 9-8h2l1-4 10-10h2l2-4z" fill="#381C5B"/>
<path transform="translate(712,359)" d="m0 0 2 1-1 40v10l-3 1-6-4v-9l-11 3 1-7 6-8 8-17 2-6h2z" fill="#1BE4CE"/>
<path transform="translate(614,398)" d="m0 0h1v37l-2 5h-2l-1 2-4 2-3 14-3 5-5 5-15 9h-4v2h-10l-1-2 9-3 10-2v-2h2l1-6 9-2 3-4h2l1-12 1-3v-11l2-1 3-15h2l1-5 2-5z" fill="#14B8D5"/>
<path transform="translate(481,481)" d="m0 0h1v14l-5 12-10 10-11 7-7 2h-13v-4l13-6 4-2h3v-2l7-4 13-13 4-7z" fill="#8D18F1"/>
<path transform="translate(360,489)" d="m0 0h26l-1 15h-7l-8-3-9-3-1-2h-12l-22 8-10 5-4 3h-2l2-4 21-11 22-6z" fill="#2BCCCE"/>
<path transform="translate(709,497)" d="m0 0 1 3-3 5-7 8-5 5-15 13-14 9-13 8-24 10-28 8h-6v-1l19-5h2l1-4 15-5h5v-2l13-5 11-6 17-11 11-9 3-3 4-2 3-1v-6l7-6 3-1z" fill="#1AAECE"/>
<path transform="translate(355,574)" d="m0 0 7 1 1 4h-3v3l-6 3-2 2v6l1 3-8 4-4-2-10-11v-3l7-6h8v-2z" fill="#281650"/>
<path transform="translate(714,349)" d="m0 0 1 4-1 5h-2v5h-2l-1 6-9 19-8 10-10 14-16 16-13 10-9 6-7 3h-2v-3l13-8 13-10 14-14h2l2-4 14-17 9-15 7-16z" fill="#DAF4F7"/>
<path transform="translate(471,345)" d="m0 0 2 3 2 7 2 5 4 2 3 3-3 3-7 4h-2l-2 5-2 4-1 56-3 3v-45l4-45 2-1z" fill="#36EBCA"/>
<path transform="translate(363,414)" d="m0 0h24l2 2h-2l-1 3h-1l1 3h-2l-1 3h-6l-4-2-4 1-6 1-6-3h-8l-15 5-15 6-11 5v-2l16-8 26-10z" fill="#292058"/>
<path transform="translate(482,373)" d="m0 0h1v116l-2-1-6 9-6 7h-2l1-6 3-5 3-22 2-5 4-1 1-2z" fill="#3572B9"/>
<path transform="translate(684,538)" d="m0 0 7 2-5 5-10 8-13 8-4 1-1-4 1-2-3 1-2-4-7-1-4 1 1 3-2 4h-5l-2-2-3-2 21-9 13-8 2 1-4 3h-2l-2 4-2 3h8l4 1 2-5 1-3 9-1v-2h2z" fill="#2C1B54"/>
<path transform="translate(614,448)" d="m0 0h1v11l-4 13-7 8-10 6-9 4h-6l2-4 10-8 7-6h2l2-4 7-10 3-6z" fill="#8D18F1"/>
<path transform="translate(711,521)" d="m0 0 2 1-10 13-9 8-10 8-10 7-15 8-16 7-19 7-21 5-3-1 5-3 13-3 7-2 25-10 16-8 14-9 11-9 9-7 8-8z" fill="#DDF5F8"/>
<path transform="translate(779,718)" d="m0 0 2 4-1 4 2 1-1 1 2 1 2 5-3 5-29 1v-12l24-1z" fill="#4D457C"/>
<path transform="translate(403,446)" d="m0 0h2l-2 4-3 1v2l6-4 5 1-1 2 1 3v2 4l-4 6h-3l-2 6-8-2-1-4h-2l-2 4-1-3 5-12 7-8z" fill="#28154F"/>
<path transform="translate(355,481)" d="m0 0 4 2v7l-8 3-20 6-19 10-2-2 2-3h2l-1-4 2-2 5-1 2 1 2-4 2-3 13-1 2 1 1-2 9-5z" fill="#3C215F"/>
<path transform="translate(713,447)" d="m0 0 1 3-6 10-9 11-9 9h-2v2l-11 9-15 11-17 10-7 4-3-1 3-2h3l1-4 12-7 12-8 17-14 15-14 7-7 7-11z" fill="#DEF7F9"/>
<path transform="translate(323,414)" d="m0 0h7l7 2h11l6-1 2 2-25 9-20 9-3 1v-4l12-6-2-4h-2l2-4 3-1z" fill="#2AD0D1"/>
<path transform="translate(412,467)" d="m0 0 1 2v11l2 1-2 16h-5v5l-6-6-1-5v-13l2-6 3 1 2-4z" fill="#19E7CD"/>
<path transform="translate(615,386)" d="m0 0h1v67l-2-2-3 4-5 9-6 8-10 8v-3l10-12 3-10 2-11 6-4h2l1-5z" fill="#3B80BF"/>
<path transform="translate(411,339)" d="m0 0 5 1 8 5 1 5-8 6-4 6-4-2-6-8-2-2 1-4z" fill="#F9FCFC"/>
<path transform="translate(710,418)" d="m0 0 1 4-4 10-10 11-7 8-8 7-3 3-6 3h-2l-6 5h-2v2l-2-1 3-8 6-3-1-3 10-1 2-7 2 1-1 1 2 1 1-4h3l2-4h2l2-4 5-5 5-8h2l2-4z" fill="#17D5D1"/>
<path transform="translate(784,706)" d="m0 0h4l1 7v10l2 6-2 1 1 5-2 8-4-2-1 2-1-2-28-1v-1h28l1-4v-3-3l-3-1v-6l-2-1v-5l-2-1 4-1-1-3z" fill="#606390"/>
<path transform="translate(731,693)" d="m0 0h2l3 6h2l2-4v29l-2-1v-9l-2-6-8-1-12 1v45l-4 1v2h-6v-2l-4-1-1-6 6 6 4-1 2-1 1-47 17-1z" fill="#545283"/>
<path transform="translate(362,573)" d="m0 0h28l7 1 4 2v2l-7 3v2l-3 2-15-1v-6h-8l-3 3h-5v-2l2-2-4-3z" fill="#351557"/>
<path transform="translate(405,233)" d="m0 0h51v1l-35 1-19 1-23 5-17 8-11 7-10 9-5 7h-2l-2 4-7 11-2 1 2-6 8-12 5-6 8-7 10-8 14-8 10-4 13-3z" fill="#F3F8F9"/>
<path transform="translate(424,772)" d="m0 0 8 1 11 9h3l2 4 1 7-6-3-5 1-2 1-1-2-4 5-4-1 1-2 3-4v-6l-2-2h-10l-2 6-2-1v-5l4-4 2-3z" fill="#3563B0"/>
<path transform="translate(753,704)" d="m0 0h29l-2 3v7l-2 1h-25z" fill="#4C447B"/>
<path transform="translate(530,424)" d="m0 0h2l-2 5-1 3h-2v6h1l2 6 2 7 1 6-4 3-4 1-1 6h-1v-5h-5l-6-3 1-3h7l5-9-9-2v-2l-6-1-2-2-5-2 2-1 10 3 7 3 3-9z" fill="#341657"/>
<path transform="translate(598,335)" d="m0 0 2 2 1 5 1 16v41l-1 17-4 1z" fill="#43D5C5"/>
<path transform="translate(482,370)" d="m0 0 2 2-1 1-1 78-1-2-7 4h-2v12l-4-1 1-5-1-2v-13h3l1-4 5-2 4 1-1-50v-16z" fill="#18D3D3"/>
<path transform="translate(364,433)" d="m0 0h28l10 2 8 3-1 2-9-1-16-3-19 1-21 5-15 5-17 8h-3l1-2 9-5 12-6 11-3 8-3 13-2z" fill="#D3EDF2"/>
<path transform="translate(562,694)" d="m0 0 4 2v2l6-1 2 2 8 4 2 2v4h2l3 6 4-2-2 5-5 6-7-6-9-12-8-9z" fill="#606491"/>
<path transform="translate(658,505)" d="m0 0h3l-2 4-2 2-6 1-1 4-8 4h-2v2l-16 6-5 1-19 1v-2l18-5 20-8 4-2 7-2z" fill="#22E4CD"/>
<path transform="translate(558,336)" d="m0 0m-16 1h10l6 2-3 4-18 6-29 10h-2v-3h2v-2h4v-2l7-1 1-2h4v-2l5-1h3v-2h5l2-4z" fill="#17D1D3"/>
<path transform="translate(365,468)" d="m0 0h23v3h-14l-15 2-29 8-16 8-5 1v-5l16-6 9-5z" fill="#3367B3"/>
<path transform="translate(499,388)" d="m0 0h1l1 47-2-1-1-15-1-3h-3v-7l-6-2-1 2-2-5v-9l2-2 4 4v6h3v-9l3-4z" fill="#2B1F59"/>
<path transform="translate(503,497)" d="m0 0h9l15 5 11 3 1 2 3 1 25 2 1-1 21-2 6-1 3 3-15 3h-29l-15-2-24-7-12-5z" fill="#376CB2"/>
<path transform="translate(571,354)" d="m0 0 3 1-22 9-12 3-6 2v2l-19 6-13 7-1 35h-1v-38l4-4 7-3 15-5 17-6 12-3 9-4z" fill="#C753B3"/>
<path transform="translate(402,725)" d="m0 0 11 3 7 4-1 7-2 2-9 1-7-2-1-4 1-9z" fill="#636893"/>
<path transform="translate(324,392)" d="m0 0h17l-3 2-11 2-2 5-4 1-1 4-9 4h-2v-14l3-2z" fill="#2D215A"/>
<path transform="translate(502,492)" d="m0 0 2 1h7 3l7 6 21 5h7l-1-4 10 5 10 3-1 3-25-2-6-2v-2l-19-5-5-2-11-1-2-1v-2z" fill="#18B5D2"/>
<path transform="translate(592,774)" d="m0 0 4 1v2l4 2 3 3 1-7h5v14l-1 5-6-1-4-6-3-1v9h-2l-1-6z" fill="#35DECA"/>
<path transform="translate(648,740)" d="m0 0h23l8 13-1 2h-4l-4-9-10-1-5 2-4-2-6-1v6l3 3-4 2-1 2-4-2 2-9 2-5z" fill="#575585"/>
<path transform="translate(510,580)" d="m0 0 12 1 6 2 18 2h33l15-2 8-1-2 4-15 2-13 1h-17l-22-2-19-4-4-1z" fill="#DBF1F4"/>
<path transform="translate(485,329)" d="m0 0 3 1-12 6-6 7-1 4-4 48h-1v-55l4-7 6 1 8-4z" fill="#DFFAFC"/>
<path transform="translate(308,515)" d="m0 0h2l2 7 5 1 4 2 9-1 7-2h7v1l-12 3-13 8h-2v2l-5 1-1 4-2-11z" fill="#3362B1"/>
<path transform="translate(510,773)" d="m0 0h2l1 6v7l-2 6-5 1-1-2-1-6-4-2v12l-3-3-2-7 1-7 4-4 9 5z" fill="#1CD1CE"/>
<path transform="translate(340,566)" d="m0 0h4l6 7-1 2-9 3-7 4-4-3-2-6 1-5z" fill="#8D18F1"/>
<path transform="translate(549,434)" d="m0 0 1 2-1 2h-3l-2 10-2 6 2 1v2l4 2 3 7-1 3-5 1-2-5h-3l-2-6v-12l4-12h6z" fill="#3EE2CA"/>
<path transform="translate(621,775)" d="m0 0h14l-2 4h-7l1 3 8 1-2 3-6 2-1 2 9 1v4l-1 1h-8l-5-2-1-2z" fill="#83D0D1"/>
<path transform="translate(654,542)" d="m0 0m-3 1 3 1-2 3h-2v2l-21 9-28 8h-6v-1l19-5h2l1-4 15-5h5v-2l13-5z" fill="#21A2CA"/>
<path transform="translate(548,344)" d="m0 0 4 1-11 4h-3v2l-11 4-1 3-4 1h-4l-4 1-5 1-4 2-2 3-5 1-4 1-3 4h-3l-1 2v-5l1-3 8-4 36-12z" fill="#292159"/>
<path transform="translate(352,402)" d="m0 0h13l9 2 13 6v2l-7 2h-16l3-3-1-3-7-3-7-1z" fill="#3362B1"/>
<path transform="translate(657,710)" d="m0 0 3 4 6 12v4h-17v-6l6-9z" fill="#616591"/>
<path transform="translate(490,449)" d="m0 0 1 2 2 1v9l3 4-3 12-4 1-1-3h-2v-11l1-5-1-5 2-4z" fill="#361557"/>
<path transform="translate(564,300)" d="m0 0 10 1v3h-2l-2 4-1 1-11 1h-5v1h-7l-5 4-1-3 2-3 10-2 3-3z" fill="#1AE5CE"/>
<path transform="translate(394,774)" d="m0 0h3l1 12h5l1 1-1 7-5 2h-6l-3-3 3-2-1-14z" fill="#35DFCB"/>
<path transform="translate(560,775)" d="m0 0 2 1v19h-2l-1-7h-11l-3 7h-3v-12l1-7 3 1v5l12 1 1 1v-8z" fill="#36E8CD"/>
<path transform="translate(479,774)" d="m0 0h2l1 3v18h-6l-4-8v-9l2-2 4-1z" fill="#3988C2"/>
<path transform="translate(364,523)" d="m0 0h12v2l3 1v10h-11v2l-3-1v-8z" fill="#292159"/>
<path transform="translate(559,447)" d="m0 0 3 2-1 7 2 1-2 5-4-2-1 2-2-2h-6l-6-5-1-2 2-5 2 1 2 4 5 1 1-3z" fill="#17E6CE"/>
<path transform="translate(389,408)" d="m0 0h11l2 1 18 1 15 4 2 2-10-2h-47v-1l9-3z" fill="#4F477E"/>
<path transform="translate(338,723)" d="m0 0 6 1v2l4 2 3 5 2 7h-9l-5-5-2-3z" fill="#5F6290"/>
<path transform="translate(944,864)" d="m0 0 5 1v2l7 2v9l-2 2-6-1-7-7 2-7z" fill="#575286"/>
<path transform="translate(445,601)" d="m0 0 3 3 1 3-1 2 7 1 6 5 6 2 5-3v2h2v5l-3 1 1 2h-4l-5-5-14-8-13-5 1-3h3z" fill="#331757"/>
<path transform="translate(688,406)" d="m0 0 2 2-1 4-2 2-2 4-4 5-3 3h-2v-2l-4 1-2 4-3 3h-3l-1 4-2 4-5-1v-2l4-1v-2l2-2v-2l7-4 8-8 5-4 3-5h2z" fill="#17E7CD"/>
<path transform="translate(526,525)" d="m0 0 6 1 14 3 37 1-2 2-8 1h-23l-17-3-8-3z" fill="#EBFBFC"/>
<path transform="translate(466,383)" d="m0 0h1v54l-3 3v-45z" fill="#77E7D7"/>
<path transform="translate(346,403)" d="m0 0 13 1 8 4 1 4-5 3-6 1v-2h2l-2-4-12-2-2-3z" fill="#15B5D3"/>
<path transform="translate(467,262)" d="m0 0 5 1 4 5-1 5-5 4-5-1-4-5 1-4z" fill="#EFF6F8"/>
<path transform="translate(362,490)" d="m0 0h16v1l-23 3-21 7-17 7-5 4h-2l2-4 21-11 22-6z" fill="#DAF5F8"/>
<path transform="translate(476,478)" d="m0 0h5v10l-6 9-6 7h-2l1-6 5-10 2-9z" fill="#3362B1"/>
<path transform="translate(347,390)" d="m0 0h13l9 2 2 3 2 7-22-1v-1l6-1v-3l2-4-12-1z" fill="#5C5D8D"/>
<path transform="translate(627,559)" d="m0 0h5l-3 1v5l-5 3h-2l-1 3-5-1v-2l-11-1 1-2 10-2v-2z" fill="#28144E"/>
<path transform="translate(731,693)" d="m0 0h2l3 6h2l2-4v29l-2-1v-9l-2-6-6-2-16-1v-1l17-1z" fill="#595888"/>
<path transform="translate(410,435)" d="m0 0 5 2 3-2h4l-1 4-5 1v3l-3 3-3 4-5 1-5 2v-2l4-3v-3l3-2 2-4-6-2v-1z" fill="#331958"/>
<path transform="translate(391,467)" d="m0 0h2l1 4 7 2-2 10h-7l-2-1-2-10z" fill="#361557"/>
<path transform="translate(658,346)" d="m0 0 7 1 2 2-1 7-4 3-5-1-3-5 1-4z" fill="#F6FCFD"/>
<path transform="translate(367,538)" d="m0 0h21l12 1 21 5 20 7 1 2-12-3-21-6-24-4-18-1z" fill="#DAF3F6"/>
<path transform="translate(710,418)" d="m0 0 1 4-4 10-10 11-5 5-1-5 5-7 5-4 3-6h2l2-4z" fill="#1EA6CD"/>
<path transform="translate(711,521)" d="m0 0 2 1-10 13-9 8-10 8-4 2-3-2 13-10 10-8 8-8z" fill="#D7F2F5"/>
<path transform="translate(421,779)" d="m0 0h8l3 3v6l-3 2h-7l-3-1 1-8z" fill="#49457C"/>
<path transform="translate(404,466)" d="m0 0 2 2-4 10v13l3 11 6 9h-3l-4-4-1-4h-2l-3-7 1-16 4-13z" fill="#292059"/>
<path transform="translate(412,467)" d="m0 0 1 2-1 6-2-2-3 7-2 12-3 4-1-5v-13l2-6 3 1 2-4z" fill="#3FE1C9"/>
<path transform="translate(440,549)" d="m0 0h16l1 1 7 1-2 2 2 3v4l-5-1-12-5-7-4z" fill="#2C1A53"/>
<path transform="translate(506,322)" d="m0 0h4l2 5-10 1-7 5h-6l-2 2-5-2 4-3 15-6z" fill="#38ECCA"/>
<path transform="translate(465,776)" d="m0 0 3 2 5-1v10l2 6-6-1-2-1-4 1 1-3v-11z" fill="#375DA7"/>
<path transform="translate(421,776)" d="m0 0h9l5 5 1 7-5 7-4-1 1-2 3-4v-6l-2-2h-10l-2 6-2-1v-5l3-2h3z" fill="#DAF5F8"/>
<path transform="translate(512,563)" d="m0 0h10l24 4 17 1v1h-33l-1-1h-6-3l-7-2z" fill="#281851"/>
<path transform="translate(684,538)" d="m0 0 7 2-5 5-10 8h-2l-1-4-2-1 2-4 3-2h6v-2h2z" fill="#351B59"/>
<path transform="translate(478,465)" d="m0 0h4v16l-1-3-5 1-2 9-2 2 2-19 2-5z" fill="#3680C2"/>
<path transform="translate(547,771)" d="m0 0 5 2 1 4 5 3h1 1v5l-2-1-12-2-1-5-2-1v7h-1v-9z" fill="#728BAC"/>
<path transform="translate(450,779)" d="m0 0h8l3 3v7l-4 2h-5l-2-5z" fill="#34A9CA"/>
<path transform="translate(714,368)" d="m0 0h1v46l-3 4h-2l-1 4-3 4h-2l-1 2-1-4 2-4h5l-3-1h-3v-3h2l1-2 4 1 3-3z" fill="#20DED0"/>
<path transform="translate(503,497)" d="m0 0h9l15 5 11 3v3l-2 1-21-6-12-5z" fill="#3579BD"/>
<path transform="translate(446,755)" d="m0 0 9 1v3l-1 4-10 3-4-1-1-4h2v-2l4-2z" fill="#7788A5"/>
<path transform="translate(571,354)" d="m0 0 3 1-22 9-12 3-6 3-7 2h-5l1-2 11-4 17-5 13-5z" fill="#D6E2E8"/>
<path transform="translate(419,453)" d="m0 0 2 1-1 4-2 4-4 6-6 2-2 3h-2l1-5 7-9z" fill="#D3EFF3"/>
<path transform="translate(809,730)" d="m0 0 5 1v18l-5 1-1-7v-12z" fill="#5E608F"/>
<path transform="translate(423,470)" d="m0 0 2 3-1 8-4 7-5-1-1-5-1-4 4-1 4-6z" fill="#36ECCA"/>
<path transform="translate(712,522)" d="m0 0h1v17l-2 8-7 19-1 2h-2l2-7 2-4 3-9 2-8v-5h2l-1-4-4 1-2 1 2-4z" fill="#2BD9D3"/>
<path transform="translate(529,523)" d="m0 0 9 1 6 3 29 1 5 1v1h-32l-14-3-5-2z" fill="#434072"/>
<path transform="translate(611,287)" d="m0 0h2l3 5v48l-2 2-1-17v-15l1-2v-14z" fill="#2EA3C6"/>
<path transform="translate(419,780)" d="m0 0 2 1-2 8h11l-2 4 1 1v2h-7l-3-1-2-5-3-1v-8l2 2 1 3 1-4z" fill="#50C4C4"/>
<path transform="translate(879,706)" d="m0 0 3 1 2 3-1 5-1 1h-11l-1-4 4-2 1-3z" fill="#575286"/>
<path transform="translate(502,492)" d="m0 0 2 1h7 3l7 6 21 5v1l-11-1-16-5-8-1-8-2v-2z" fill="#17CCD3"/>
<path transform="translate(391,719)" d="m0 0 5 2 6 4-1 11 1 2h-4l-4-5v-8l-3-4z" fill="#4F477E"/>
<path transform="translate(482,370)" d="m0 0 2 2-1 1-1 78h-1l-1-62v-16z" fill="#2EDBD3"/>
<path transform="translate(409,508)" d="m0 0 6 2h11l2 4-2 3-6 1-6-3-5-6z" fill="#16B4D3"/>
<path transform="translate(462,379)" d="m0 0h1l1 50v23l-3-1-1-3h2l-1-3z" fill="#281751"/>
<path transform="translate(688,451)" d="m0 0 2 1-3 4-6 7-7 8-8 6h-2l-2 4-6 2 5-5 9-8h2l1-4 10-10h2l2-4z" fill="#2B235B"/>
<path transform="translate(395,584)" d="m0 0h2v3h2v4 1l8 1v3l-19-3-27-1v-1l33-1-2-5z" fill="#351A59"/>
<path transform="translate(402,756)" d="m0 0h8v5h-3l-4 3-3 3-5-1-1-5z" fill="#7888A6"/>
<path transform="translate(389,461)" d="m0 0h2l-2 7-7 1h-17l-16 3-3-1 12-3 19-3 9-1z" fill="#15B4D3"/>
<path transform="translate(324,404)" d="m0 0h21v1l-12 2-7 2-13 2-2-2 7-3z" fill="#3ACECB"/>
<path transform="translate(653,440)" d="m0 0 3 2-4 2-1 3-3 1-3 5-8-1v-4l6-3 3-3z" fill="#19E6CD"/>
<path transform="translate(869,554)" d="m0 0 2 4 1 4 5 1-1 3-6 2-1 6-2-1-1-5-1-7z" fill="#5E608F"/>
<path transform="translate(571,399)" d="m0 0h5v2l-11 2-13 2-1 3-3 1v3l-7 1 2-4 11-7z" fill="#2C1854"/>
<path transform="translate(352,402)" d="m0 0h13l1 2 5 2 2 2 1 5-10 1 3-3-1-3-7-3-7-1z" fill="#3680C2"/>
<path transform="translate(635,460)" d="m0 0 4 1h-2v2h3v12l-3 1-5-3z" fill="#17E7CD"/>
<path transform="translate(715,348)" d="m0 0h1l1 10v29l-2 1-1-29-2-1h2z" fill="#586394"/>
<path transform="translate(621,787)" d="m0 0 3 1h3l-1 2 9 1v4l-1 1h-8l-5-2-1-2z" fill="#2EE5CD"/>
<path transform="translate(338,539)" d="m0 0 5 2-3 2-11 4-11 6v-3h2l1-3 6-3 2-3z" fill="#3A205E"/>
<path transform="translate(627,478)" d="m0 0 2 4v2h-2l1 3-1 2h-2v2h-2v2l-6 4-7 2 5-5 5-6h2l2-4z" fill="#46D8C7"/>
<path transform="translate(609,455)" d="m0 0 1 3-8 11-5 5-8 6 2-4 9-11 2-3h3l-1-3 1-2z" fill="#3362B1"/>
<path transform="translate(596,329)" d="m0 0 6 2 1 21v25h-1l-2-35-3-10-5-1z" fill="#2ED4D1"/>
<path transform="translate(499,774)" d="m0 0 3 2-2 19-3-3-2-7 1-7z" fill="#DDF8FA"/>
<path transform="translate(554,422)" d="m0 0 2 1v3l-5 9-8 1 1-4 7-8z" fill="#D8F3F6"/>
<path transform="translate(479,774)" d="m0 0h2l1 3v18h-4v-20z" fill="#ECFBFC"/>
<path transform="translate(613,557)" d="m0 0 4 1-3 3-19 5h-8l1-2 9-2 1-1 9-2h6z" fill="#14BBD4"/>
<path transform="translate(676,552)" d="m0 0h4l-1 3-18 10h-7l4-3 12-6z" fill="#DFF5F7"/>
<path transform="translate(654,542)" d="m0 0m-3 1 3 1-2 3h-2v2l-16 7-2-1 5-2v-4l13-5z" fill="#1FA6CC"/>
<path transform="translate(320,534)" d="m0 0 3 1-5 5-1 6 4-1 3-1 1 2-4 2-1 2h-2v6h-2l-3-7v-6l5-7h2z" fill="#321555"/>
<path transform="translate(673,455)" d="m0 0h6l-3 5-10 8-3 1v2l-2-1 3-8 6-3-1-3z" fill="#17E5CE"/>
<path transform="translate(601,501)" d="m0 0h2v2l-14 5-6 1h-15l-10-3-4-3h5l7 3 12 1 10-1 8-3z" fill="#29225A"/>
<path transform="translate(548,344)" d="m0 0 4 1-11 4h-3v2l-11 4-1 3-4 1-5-2 2-3 21-7z" fill="#282058"/>
<path transform="translate(483,305)" d="m0 0h2v2l-12 5-3 2-4-1 14-7zm-19 9 2 1-2 1zm-2 2h2l-1 3h-2l-2 4-6 8-2-2 8-10z" fill="#351758"/>
<path transform="translate(467,424)" d="m0 0h1v30h-2l-1 2-1-3v-13l2-3z" fill="#31EACC"/>
<path transform="translate(484,524)" d="m0 0 2 1-5 5-7 6-7 4h-2l3 3 4 3-5-1-3-2 1-5 9-7h3v-3l5-2z" fill="#2C1E58"/>
<path transform="translate(640,510)" d="m0 0 2 1-1 2-6 2v2l-15 6-4-2 12-6 10-4z" fill="#D8EDF1"/>
<path transform="translate(666,608)" d="m0 0 2 1-5 3-8 4-15 6-10 2h-8v-1l22-5z" fill="#3362B1"/>
<path transform="translate(536,311)" d="m0 0h3l-1 5-13 4h-6l-1-2z" fill="#36EBCA"/>
<path transform="translate(345,258)" d="m0 0h2l-1 3-7 6-3 5h-2l-2 4-7 11-2 1 2-6 8-12 5-6z" fill="#E1EBEF"/>
<path transform="translate(436,445)" d="m0 0h11l9 3 6 3-2 3-5-2-2-1v-2h-5l-1 5h-2l-1-5 1-2-9-1z" fill="#48B6BF"/>
<path transform="translate(592,774)" d="m0 0 4 1v2h2l-1 5-2 3v10h-2l-1-6z" fill="#DEF9FB"/>
<path transform="translate(497,515)" d="m0 0 10 3 18 6-1 3-11-3-12-5z" fill="#D3EBF0"/>
<path transform="translate(559,478)" d="m0 0 5 1 2 3-1 4-9-1-5-5h8z" fill="#16B1D2"/>
<path transform="translate(593,506)" d="m0 0 5 2-3 2-7 1h-21l1-2 21-2z" fill="#3778BB"/>
<path transform="translate(424,772)" d="m0 0 8 1 3 3 2 6v5l-2-4-3-5-2-1-9-1v2l-3-1 3-4z" fill="#3CA6C3"/>
<path transform="translate(655,597)" d="m0 0 3 1 5-1-1 3 1 3-3 3-6-1-4-1 1-4 4-1z" fill="#17E3CE"/>
<path transform="translate(485,329)" d="m0 0 3 1-12 6-6 7-2 5-1-4 2-7-3 1 2-5 6 1 8-4z" fill="#DFF7FA"/>
<path transform="translate(687,704)" d="m0 0h15v34h-1l-1-30-13-2z" fill="#4E467D"/>
<path transform="translate(342,421)" d="m0 0m-2 1h2v2l-16 6-15 7-3 1v-2l16-8z" fill="#292159"/>
<path transform="translate(668,777)" d="m0 0 3 3v13l-4 1-2-3 2-3v-6l-3-1 1-3z" fill="#575286"/>
<path transform="translate(603,719)" d="m0 0h2l1 2v27h-1l-1-19-5-1 1-5z" fill="#697096"/>
<path transform="translate(441,551)" d="m0 0 5 1 8 4 17 8-1 2-6-2-17-8-5-2z" fill="#BED7E0"/>
<path transform="translate(334,546)" d="m0 0m-2 1h2l-2 4-9 7h-2l-1 2h-2l1-5 10-7z" fill="#367EC0"/>
<path transform="translate(319,497)" d="m0 0 3 2-1 5-10 5-1-2 2-3h2l-1-4 2-2z" fill="#381E5C"/>
<path transform="translate(500,455)" d="m0 0 12 3 6 3 5 1v3l-9-3-10-2-2 3-2-2z" fill="#64D5CD"/>
<path transform="translate(335,524)" d="m0 0 4 1-14 7-5 2v2h-2l-2 5-4 4v-8l5-1v-2l15-9z" fill="#292159"/>
<path transform="translate(315,420)" d="m0 0 1 2h2l3 4-8 5-3 1 1-9 1-2z" fill="#17E6CE"/>
<path transform="translate(510,375)" d="m0 0 4 1-11 5-1 3-1 35h-1v-38l4-4z" fill="#859CB2"/>
<path transform="translate(577,349)" d="m0 0h4l-1 3-9 3-12 3v-2l9-5z" fill="#3B225F"/>
<path transform="translate(576,773)" d="m0 0h2l1 2v20h-2l-1-3z" fill="#DFFAFC"/>
<path transform="translate(490,483)" d="m0 0h2l1 4 3 1-2 1-2 7h-3v-5l-2-3 1-4z" fill="#361557"/>
<path transform="translate(346,418)" d="m0 0 4 1-21 8-12 5-2-1 13-7z" fill="#3367B4"/>
<path transform="translate(391,775)" d="m0 0 1 2v7l1 7-3 2-1 2-1-1v-13l2-5z" fill="#3465B0"/>
<path transform="translate(526,525)" d="m0 0 6 1 14 3 4 3h-8l-16-4z" fill="#DDF5F7"/>
<path transform="translate(688,985)" d="m0 0h6v5h-13l-1-3z" fill="#4E457D"/>
<path transform="translate(784,744)" d="m0 0 1 4h2l-1-4 3 2 2 4-3 7-3-1-1-4-2-1z" fill="#5F6290"/>
<path transform="translate(418,497)" d="m0 0 1 3h3l1 5 2 1-1 1-11-1-1-2 4-3z" fill="#17E6CE"/>
<path transform="translate(712,451)" d="m0 0h2v42h-1l-1-36-2 3h-2l2-6z" fill="#30DED0"/>
<path transform="translate(673,422)" d="m0 0 1 3h-2l-2 4-3 3h-3l-1 4-2 4-5-1v-2l4-1v-2l2-2v-2l7-4z" fill="#1EE9CD"/>
<path transform="translate(363,414)" d="m0 0h24l2 2-21 1-5-1z" fill="#28154F"/>
<path transform="translate(664,542)" d="m0 0 2 2 1 6 3 1h-12l-2-2 5-4z" fill="#351456"/>
<path transform="translate(595,430)" d="m0 0 5 3v7l-4 1-3-4 1-6z" fill="#17E7CE"/>
<path transform="translate(642,743)" d="m0 0h2l1 7 3 3-4 2-1 2-4-2 2-9z" fill="#5A5789"/>
<path transform="translate(598,582)" d="m0 0 4 1-2 3-18 2-3-3 15-2z" fill="#CDE4EB"/>
<path transform="translate(340,542)" d="m0 0 3 1-15 7-9 6-1-3 8-5 10-5z" fill="#9EB8C6"/>
<path transform="translate(546,438)" d="m0 0h2v10l1 2 4 2-1 2h-5l-3-5v-6z" fill="#1CCAD2"/>
<path transform="translate(611,770)" d="m0 0h2v2l3 1-2 5h-3l1 5-2 2-1-3v-9z" fill="#544E83"/>
<path transform="translate(413,543)" d="m0 0 8 1 20 7 1 2-12-3-17-5z" fill="#D0EAEF"/>
<path transform="translate(535,530)" d="m0 0 15 2 14 1-2 2h-14l-12-3z" fill="#4DC2C5"/>
<path transform="translate(548,500)" d="m0 0 12 6v2h-7l-11-2v-1l7-1z" fill="#19CDD2"/>
<path transform="translate(400,492)" d="m0 0 3 4 4 9 4 7-5-2-3-5v-2h-2l-1-7z" fill="#281B54"/>
<path transform="translate(595,786)" d="m0 0 4 1 4 6-1 3-7-1z" fill="#3D3871"/>
<path transform="translate(712,321)" d="m0 0 2 1v24h-1l-2-13-1-8z" fill="#29144F"/>
<path transform="translate(500,783)" d="m0 0 4 1 2 3-1 7h-4l-1-3z" fill="#3367B3"/>
<path transform="translate(350,604)" d="m0 0 6 2 10 6 10 5-3 1-16-8-7-5z" fill="#2C245C"/>
<path transform="translate(701,570)" d="m0 0 1 3-10 15-6 7-2-1 6-7 6-11 4-4z" fill="#3367B3"/>
<path transform="translate(513,456)" d="m0 0 5 1 2 1h6l-2 9h-1v-5h-5l-6-3z" fill="#322A60"/>
<path transform="translate(571,354)" d="m0 0 3 1-22 9h-5l4-3 13-5z" fill="#D9E5E9"/>
<path transform="translate(394,774)" d="m0 0h3l1 14-4-2-2-7z" fill="#DFFAFC"/>
<path transform="translate(667,537)" d="m0 0 2 1-13 8-3 2-3-1 5-5 6-4z" fill="#2692C5"/>
<path transform="translate(709,497)" d="m0 0 1 3-3 5-5 5h-3v-4l7-6 3-1z" fill="#1CBFD0"/>
<path transform="translate(613,497)" d="m0 0 5 1-3 2-5 1v2l-5 3h-4v-3l7-4z" fill="#24CDCF"/>
<path transform="translate(447,448)" d="m0 0 6 1v2l5 2 2 2-3 1-10-2-1-4z" fill="#18E3CE"/>
<path transform="translate(545,1020)" d="m0 0h7 3l4 2 1 2h-15z" fill="#4E457D"/>
<path transform="translate(503,497)" d="m0 0h9l9 4-1 3-9-3-8-3z" fill="#3572B8"/>
<path transform="translate(685,407)" d="m0 0 1 2-6 8-10 9h-3l15-15zm-19 20m-2 1 2 1h-3z" fill="#50DBC8"/>
<path transform="translate(699,510)" d="m0 0 2 1-7 8-14 12-3 1v-2l11-9 4-2 2-4 3-3h2z" fill="#3672B8"/>
<path transform="translate(712,522)" d="m0 0h1v14h-3l2-1-1-4-4 1-2 1 2-4z" fill="#35DCD0"/>
<path transform="translate(715,398)" d="m0 0h1v18l-7 13-1-2 4-11 2-2z" fill="#3471B9"/>
<path transform="translate(637,784)" d="m0 0 3 3-4 2v2h-8l-2-1v-2l7-1 4-1z" fill="#3D407C"/>
<path transform="translate(510,580)" d="m0 0 12 1 6 2 4 2h-10l-12-3z" fill="#E9F6F8"/>
<path transform="translate(688,451)" d="m0 0 2 1-3 4-6 7-5 3-4 2 6-7 5-5h2l2-4z" fill="#375EA1"/>
<path transform="translate(512,352)" d="m0 0h6l1 3-11 4h-2v-3h2v-2h4z" fill="#1DB7CD"/>
<path transform="translate(468,336)" d="m0 0 2 1-3 12-3 1v-10z" fill="#F7FCFC"/>
<path transform="translate(560,775)" d="m0 0 2 1v19h-2l-1-10v-9z" fill="#DFFAFC"/>
<path transform="translate(471,614)" d="m0 0 1 2h2v5l-3 1 1 2h-4l-1-6z" fill="#341556"/>
<path transform="translate(549,436)" d="m0 0 2 1-1 2v7l1 2 3-2 3-7 1 3-3 6-2 2h-5l-1-7z" fill="#DFFAFC"/>
<path transform="translate(243,897)" d="m0 0 5 2v5h-6l-2-2 1-4z" fill="#5E608F"/>
<path transform="translate(507,691)" d="m0 0 9 2 6 3 2 6-4-2-7-5-6-3z" fill="#616490"/>
<path transform="translate(470,565)" d="m0 0 9 3 10 4v2l-9-2-10-5z" fill="#DBF2F5"/>
<path transform="translate(548,357)" d="m0 0h7v4l-11 2v-4z" fill="#3B215E"/>
<path transform="translate(598,772)" d="m0 0 4 1v2h2v7h-3l-4-5z" fill="#3F386F"/>
<path transform="translate(435,587)" d="m0 0 6 2v5l-7 3v-4l1-2h2z" fill="#361557"/>
<path transform="translate(656,566)" d="m0 0v3l-5 3-7 3h-5v2l-3-1 4-3 12-5z" fill="#35CECD"/>
<path transform="translate(704,493)" d="m0 0 1 2 3-1 2 3-5 5-4-1 1-4z" fill="#1DE7CD"/>
<path transform="translate(368,491)" d="m0 0h8l4 2-10 1h-15v-1z" fill="#60BEC4"/>
<path transform="translate(779,725)" d="m0 0 3 2-1 1 2 1 2 5-4 3-2-2 1-2-3-1z" fill="#575286"/>
<path transform="translate(709,550)" d="m0 0h1v7l-4 11-2 1v-6z" fill="#445595"/>
<path transform="translate(327,544)" d="m0 0h6l-1 2-14 7v-3h2l1-3z" fill="#332C63"/>
<path transform="translate(558,469)" d="m0 0 5 1v3l-6 2-3-1-2-3z" fill="#17E7CE"/>
<path transform="translate(482,370)" d="m0 0 2 2-1 1-1 19-2-2v-17z" fill="#2ED8D2"/>
<path transform="translate(538,345)" d="m0 0m-2 1 4 2-17 6h-3l1-3 7-2h5v-2z" fill="#209CCA"/>
<path transform="translate(362,245)" d="m0 0 2 1-5 5-11 7-2-1 10-8z" fill="#F5FDFD"/>
<path transform="translate(709,761)" d="m0 0 5 2h6v2l-3 3-5-1-5-4z" fill="#575286"/>
<path transform="translate(604,728)" d="m0 0h1l1 20 4 7-5-1-1-1z" fill="#50497F"/>
<path transform="translate(310,474)" d="m0 0 4 3 1 5-6 3v-8z" fill="#21D6D3"/>
<path transform="translate(501,462)" d="m0 0 2 1 1 30-4 1 1-6z" fill="#2CD8D2"/>
<path transform="translate(503,437)" d="m0 0 9 2 9 4v2h-5v-2l-6-1-2-2-5-2z" fill="#321757"/>
<path transform="translate(437,432)" d="m0 0 3 1v5l1 2-3 1-3-2-1-1-3-1 1-3h3z" fill="#361557"/>
<path transform="translate(573,333)" d="m0 0h9l-3 2-15 5h-2l1-3 10-3z" fill="#209CCA"/>
<path transform="translate(336,435)" d="m0 0m-4 3h4v2h-3v2l-10 2 1-4 4-1z" fill="#341657"/>
<path transform="translate(579,1019)" d="m0 0 5 1 1 4h-10l2-4z" fill="#4E457D"/>
<path transform="translate(633,778)" d="m0 0 3 1-1 4h-8l-1-4z" fill="#386CB5"/>
<path transform="translate(625,297)" d="m0 0 3 1v9l-2 1v-3l-3-1v-5h2z" fill="#292159"/>
<path transform="translate(671,742)" d="m0 0 3 3 5 8-1 2h-4l-2-4z" fill="#585587"/>
<path transform="translate(404,704)" d="m0 0 6 2v2h-3l-1 3-2-1-1 1-3-2 2-4z" fill="#7685A4"/>
<path transform="translate(562,694)" d="m0 0 4 2v2h4l1 3-2 4-7-8z" fill="#656A94"/>
<path transform="translate(574,414)" d="m0 0h9l9 3-3 2-9-2v5h-1v-6l-5-1z" fill="#51B9BF"/>
<path transform="translate(509,785)" d="m0 0 4 1-2 6-5 1-1-2 2-3h2z" fill="#32EDCB"/>
<path transform="translate(701,747)" d="m0 0 6 6 7-1 2-1-1 3h-3v2h-6v-2l-4-1z" fill="#524E81"/>
<path transform="translate(277,716)" d="m0 0h4l-1 6-3 2-4-4 1-3 2 1z" fill="#5C5F8C"/>
<path transform="translate(710,418)" d="m0 0 1 4-4 8h-4l1-4h2l2-4z" fill="#14B8D5"/>
<path transform="translate(571,399)" d="m0 0h5v2l-11 2-9 1 1-2z" fill="#28144E"/>
<path transform="translate(548,308)" d="m0 0h4l1 3h-7l-5 4-1-3 2-3z" fill="#25EACC"/>
<path transform="translate(692,515)" d="m0 0 1 2-5 5-9 8-2-1 5-5z" fill="#14B9D4"/>
<path transform="translate(684,453)" d="m0 0 2 1-5 5-8 5 1-4h2l2-4 6-1z" fill="#15C0D4"/>
<path transform="translate(642,444)" d="m0 0 2 1-4 3h-3v10l-3 1 1-12z" fill="#4ACAC6"/>
<path transform="translate(227,897)" d="m0 0 5 2-1 4-4 1-2-5z" fill="#5E608F"/>
<path transform="translate(634,622)" d="m0 0h6l-4 1v2l-6 1h-8l-2-2z" fill="#514A80"/>
<path transform="translate(675,603)" d="m0 0 2 1-8 7-9 4-2-1 9-5z" fill="#5E608F"/>
<path transform="translate(646,507)" d="m0 0h4l-1 3-11 6-3-1 3-2h3l1-4z" fill="#DCF6F8"/>
<path transform="translate(627,488)" d="m0 0 5 1-5 4-3 3-3-1v-2h2v-2h2v-2z" fill="#19DDD0"/>
<path transform="translate(416,429)" d="m0 0h10l3 2-9 2h-4z" fill="#5B5A8A"/>
<path transform="translate(623,775)" d="m0 0h12l-2 3-10 1z" fill="#DFFAFC"/>
<path transform="translate(657,560)" d="m0 0 2 2-11 6h-2v-4l4-2h7z" fill="#35275E"/>
<path transform="translate(615,436)" d="m0 0h1v17l-2-2-4 4 1-5 3-4z" fill="#3362B1"/>
<path transform="translate(714,349)" d="m0 0 1 4-1 5h-2v5l-5 3 2-6z" fill="#C2E1E7"/>
<path transform="translate(548,787)" d="m0 0h8l-4 3-3 2-1 3-5 1 2-2z" fill="#5283B6"/>
<path transform="translate(604,775)" d="m0 0h5v9l-1-4h-2v2h-2z" fill="#B7D2DB"/>
<path transform="translate(614,521)" d="m0 0h5l-1 3-6 2-4-1-2-2z" fill="#DFF5F8"/>
<path transform="translate(502,492)" d="m0 0 10 4-4 2-9-2v-2z" fill="#18B4D2"/>
<path transform="translate(403,472)" d="m0 0 3 2-2 6h-2v11h-1v-13z" fill="#7C9FBB"/>
<path transform="translate(398,448)" d="m0 0h2l-2 4-5 6-1 2h-2v-4h2v-3z" fill="#29BBCB"/>
<path transform="translate(557,301)" d="m0 0h5l-4 3-12 4h-5l3-2 12-4z" fill="#DFFAFC"/>
<path transform="translate(408,595)" d="m0 0 11 1v2l5 1v1l-8-1-8-3z" fill="#351C5B"/>
<path transform="translate(608,580)" d="m0 0 5 1-1 2-12 2 2-3z" fill="#D9F4F7"/>
<path transform="translate(640,554)" d="m0 0 4 1-2 5h-5l-2-4z" fill="#28144E"/>
<path transform="translate(529,523)" d="m0 0 9 1v3l-3 1-8-3z" fill="#383368"/>
<path transform="translate(532,584)" d="m0 0 14 1v1l-5 1h-8l-6-1v-1z" fill="#C5DDE6"/>
<path transform="translate(660,502)" d="m0 0 1 2-2-1zm-3 2 2 1-5 4-5 3-1 1h-5l4-3z" fill="#4CDFC9"/>
<path transform="translate(574,297)" d="m0 0h4l-1 4h-8l-3-2z" fill="#33D9CB"/>
<path transform="translate(332,273)" d="m0 0v3l-7 11-2 1 2-6 5-8z" fill="#EEF6F7"/>
<path transform="translate(510,773)" d="m0 0h2l1 6v4l-4-1z" fill="#7AE9DD"/>
<path transform="translate(535,479)" d="m0 0 5 1-1 5-3 1-3-4z" fill="#351456"/>
<path transform="translate(413,468)" d="m0 0 1 3 1 5 5-4-2 5-4 2-2-3v-7z" fill="#DFFAFC"/>
<path transform="translate(320,447)" d="m0 0 2 1-1 3-10 5-2-1 1-2 9-5z" fill="#BFDAE2"/>
<path transform="translate(619,749)" d="m0 0 2 3v3l-7 1v-3z" fill="#595587"/>
<path transform="translate(858,594)" d="m0 0h5l2 4-9 1z" fill="#5E608F"/>
<path transform="translate(663,560)" d="m0 0 3 1-3 3-2 1h-7l4-3z" fill="#E0F2F4"/>
<path transform="translate(713,447)" d="m0 0 1 3-5 8-3 1 2-4z" fill="#D6F1F5"/>
<path transform="translate(551,341)" d="m0 0 4 2-13 4h-2l1-3 9-2z" fill="#209BC9"/>
<path transform="translate(550,280)" d="m0 0h5l-4 3-7 3h-6l3-2z" fill="#39215F"/>
<path transform="translate(598,504)" d="m0 0h3v2h5l-3 2h-9z" fill="#1EA1CC"/>
<path transform="translate(509,481)" d="m0 0h4l1 7-2 3-2-3z" fill="#18D3D3"/>
<path transform="translate(690,443)" d="m0 0 2 3-1 4-5 3 2-8z" fill="#18BCD1"/>
<path transform="translate(600,416)" d="m0 0h1v11h-4l1-6z" fill="#17E6CE"/>
<path transform="translate(546,362)" d="m0 0 3 1h-2v2l-10 3-3-2z" fill="#BDCBD7"/>
<path transform="translate(591,331)" d="m0 0h6l-2 2-7 1-1 1h-8l3-2z" fill="#292159"/>
<path transform="translate(596,796)" d="m0 0 6 3v2h-6v2l-3-1 2-3z" fill="#575386"/>
<path transform="translate(478,786)" d="m0 0 3 1 1 8h-4z" fill="#E0FAFC"/>
<path transform="translate(538,528)" d="m0 0 8 1 4 3h-8l-5-2z" fill="#D4EFF3"/>
<path transform="translate(609,494)" d="m0 0 4 1-5 5-4 2 1-4z" fill="#2B1C55"/>
<path transform="translate(429,492)" d="m0 0 4 2v3l-3 3-2-1v-6z" fill="#17E7CE"/>
<path transform="translate(410,435)" d="m0 0 4 2-5 5v-3l-6-2v-1z" fill="#65719A"/>
<path transform="translate(510,375)" d="m0 0 4 1-11 5-2 2 1-5z" fill="#D5E0E6"/>
<path transform="translate(711,311)" d="m0 0h1l1 10-2 6-2 1z" fill="#2A225A"/>
<path transform="translate(456,614)" d="m0 0 5 1 5 2 1 4-11-6z" fill="#301A57"/>
<path transform="translate(652,565)" d="m0 0h7l-3 2-6 3-3-1 3-3z" fill="#E6FBFC"/>
<path transform="translate(326,548)" d="m0 0 2 2-9 6-1-3z" fill="#7E91AB"/>
<path transform="translate(404,479)" d="m0 0 1 3-1 9-2 1v-12z" fill="#DFFAFC"/>
<path transform="translate(509,459)" d="m0 0 8 1 6 2v3l-9-3-5-2z" fill="#D1ECF1"/>
<path transform="translate(583,432)" d="m0 0 1 4v4l-3 1-2-4 2-3h2z" fill="#17E7CE"/>
<path transform="translate(515,374)" d="m0 0m-1 1 1 2-11 6h-2l1-3z" fill="#E024AE"/>
</svg>
